<?xml version="1.0" encoding="UTF-8"?>
<svg id="Layer_1" data-name="Layer 1" xmlns="http://www.w3.org/2000/svg" viewBox="0 0 289.5 80.2">
  <defs>
    <style>
      .cls-1 {
        fill: #6982a2;
      }

      .cls-2 {
        fill: #c5b9a3;
      }

      .cls-3 {
        fill: #2a3f57;
      }

      .cls-4 {
        fill: #1f2429;
      }

      .cls-5 {
        fill: #e37f69;
      }

      .cls-6 {
        fill: #c77665;
      }

      .cls-7 {
        fill: #3c4f66;
      }

      .cls-8 {
        fill: #c1b69d;
      }

      .cls-9 {
        fill: #c5bca8;
      }

      .cls-10 {
        fill: #14151a;
      }

      .cls-11 {
        fill: #ef9a89;
      }

      .cls-12 {
        fill: #131413;
      }

      .cls-13 {
        fill: #ea9a8b;
      }

      .cls-14 {
        fill: #42556c;
      }

      .cls-15 {
        fill: #090c0c;
      }

      .cls-16 {
        fill: #e8826f;
      }

      .cls-17 {
        fill: #fafafa;
      }

      .cls-18 {
        fill: #3d4f67;
      }

      .cls-19 {
        fill: #3e2c23;
      }

      .cls-20 {
        fill: #755b4d;
      }

      .cls-21 {
        fill: #3b4f66;
      }

      .cls-22 {
        fill: #626f7e;
      }

      .cls-23 {
        fill: #020303;
      }

      .cls-24 {
        fill: #414a59;
      }

      .cls-25 {
        fill: #292a24;
      }

      .cls-26 {
        fill: #9da9b7;
      }

      .cls-27 {
        fill: #3f4e62;
      }

      .cls-28 {
        fill: #32455b;
      }

      .cls-29 {
        fill: #475970;
      }

      .cls-30 {
        fill: #30100e;
      }

      .cls-31 {
        fill: #06070c;
      }

      .cls-32 {
        fill: #ef9784;
      }

      .cls-33 {
        fill: #ef9b88;
      }

      .cls-34 {
        fill: #74808e;
      }

      .cls-35 {
        fill: #e7e7e6;
      }

      .cls-36 {
        fill: #3c4e67;
      }

      .cls-37 {
        fill: #c4baa4;
      }

      .cls-38 {
        fill: #2c3f56;
      }

      .cls-39 {
        fill: #a89a7f;
      }

      .cls-40 {
        fill: #b8786a;
      }

      .cls-41 {
        fill: #cabfa9;
      }

      .cls-42 {
        fill: #cc7663;
      }

      .cls-43 {
        fill: #121a23;
      }

      .cls-44 {
        fill: #ee9c8c;
      }

      .cls-45 {
        fill: #e48975;
      }

      .cls-46 {
        fill: #020202;
      }

      .cls-47 {
        fill: #6b8aa9;
      }

      .cls-48 {
        fill: #f09582;
      }

      .cls-49 {
        fill: #0c0708;
      }

      .cls-50 {
        fill: #64819e;
      }

      .cls-51 {
        fill: #2b3f57;
      }

      .cls-52 {
        fill: #eb9c8c;
      }

      .cls-53 {
        fill: #15191b;
      }

      .cls-54 {
        fill: #080605;
      }

      .cls-55 {
        fill: #f09784;
      }

      .cls-56 {
        fill: #c2b29e;
      }

      .cls-57 {
        fill: #3a4d62;
      }

      .cls-58 {
        fill: #cd7c6c;
      }

      .cls-59 {
        fill: #c77365;
      }

      .cls-60 {
        fill: #9ba7b5;
      }

      .cls-61 {
        fill: #bbb39e;
      }

      .cls-62 {
        fill: #f59b94;
      }

      .cls-63 {
        fill: #3c4d63;
      }

      .cls-64 {
        fill: #c87464;
      }

      .cls-65 {
        fill: #010102;
      }

      .cls-66 {
        fill: #f09b8f;
      }

      .cls-67 {
        fill: #3f495b;
      }

      .cls-68 {
        fill: #2d425a;
      }

      .cls-69 {
        fill: #131c29;
      }

      .cls-70 {
        fill: #ed9988;
      }

      .cls-71 {
        fill: #2b3f56;
      }

      .cls-72 {
        fill: #394d65;
      }

      .cls-73 {
        fill: #c2b6a2;
      }

      .cls-74 {
        fill: #121315;
      }

      .cls-75 {
        fill: #1b1e21;
      }

      .cls-76 {
        fill: #ca7565;
      }

      .cls-77 {
        fill: #6b88a8;
      }

      .cls-78 {
        fill: #d17e6d;
      }

      .cls-79 {
        fill: #c6bca8;
      }

      .cls-80 {
        fill: #2b3e55;
      }

      .cls-81 {
        fill: #f19684;
      }

      .cls-82 {
        fill: #e38c78;
      }

      .cls-83 {
        fill: #f59c90;
      }

      .cls-84 {
        fill: #e59482;
      }

      .cls-85 {
        fill: #c47465;
      }

      .cls-86 {
        fill: #f27b67;
      }

      .cls-87 {
        fill: #2c323b;
      }

      .cls-88 {
        fill: #ef9682;
      }

      .cls-89 {
        fill: #495f72;
      }

      .cls-90 {
        fill: #3b4f67;
      }

      .cls-91 {
        fill: #c5b89e;
      }

      .cls-92 {
        fill: #bc7464;
      }

      .cls-93 {
        fill: #c3b59a;
      }

      .cls-94 {
        fill: #2c3d51;
      }

      .cls-95 {
        fill: #2a3d50;
      }

      .cls-96 {
        fill: #a89a85;
      }

      .cls-97 {
        fill: #090b0e;
      }

      .cls-98 {
        fill: #f1f2f2;
      }

      .cls-99 {
        fill: #ef9f8f;
      }

      .cls-100 {
        fill: #c0b49b;
      }

      .cls-101 {
        fill: #3e4c5d;
      }

      .cls-102 {
        fill: #c5ba9e;
      }

      .cls-103 {
        fill: #c77463;
      }

      .cls-104 {
        fill: #f9f9f9;
      }

      .cls-105 {
        fill: #f67355;
      }

      .cls-106 {
        fill: #1c1d1d;
      }

      .cls-107 {
        fill: #3e4c5b;
      }

      .cls-108 {
        fill: #e9927e;
      }

      .cls-109 {
        fill: #050909;
      }

      .cls-110 {
        fill: #64809a;
      }

      .cls-111 {
        fill: #040405;
      }

      .cls-112 {
        fill: #a69984;
      }

      .cls-113 {
        fill: #bf7468;
      }

      .cls-114 {
        fill: #465870;
      }

      .cls-115 {
        fill: #e8836b;
      }

      .cls-116 {
        fill: #121b26;
      }

      .cls-117 {
        fill: #616f7e;
      }

      .cls-118 {
        fill: #7b8691;
      }

      .cls-119 {
        fill: #171e24;
      }

      .cls-120 {
        fill: #f19683;
      }

      .cls-121 {
        fill: #374b62;
      }

      .cls-122 {
        fill: #070c13;
      }

      .cls-123 {
        fill: #ce7c6e;
      }

      .cls-124 {
        fill: #cb7665;
      }

      .cls-125 {
        fill: #20160f;
      }

      .cls-126 {
        fill: none;
      }

      .cls-127 {
        fill: #6b8aaa;
      }

      .cls-128 {
        fill: #f09b88;
      }

      .cls-129 {
        fill: #495c73;
      }

      .cls-130 {
        fill: #f19c8b;
      }

      .cls-131 {
        fill: #445870;
      }

      .cls-132 {
        fill: #190b0a;
      }

      .cls-133 {
        fill: #e28c79;
      }

      .cls-134 {
        fill: #e97c64;
      }

      .cls-135 {
        fill: #404c57;
      }

      .cls-136 {
        fill: #040202;
      }

      .cls-137 {
        fill: #c67566;
      }

      .cls-138 {
        fill: #3c4f65;
      }

      .cls-139 {
        fill: #df8c75;
      }

      .cls-140 {
        fill: #1a1d22;
      }

      .cls-141 {
        fill: #c27665;
      }

      .cls-142 {
        fill: #0c1317;
      }

      .cls-143 {
        fill: #d07764;
      }

      .cls-144 {
        fill: #75808e;
      }

      .cls-145 {
        fill: #bb7467;
      }

      .cls-146 {
        fill: #2d1a17;
      }

      .cls-147 {
        fill: #bab8aa;
      }

      .cls-148 {
        fill: #264d7a;
        isolation: isolate;
      }

      .cls-149 {
        fill: #f29b89;
      }

      .cls-150 {
        fill: #6b89a9;
      }

      .cls-151 {
        fill: #c77563;
      }

      .cls-152 {
        fill: #ed9682;
      }

      .cls-153 {
        fill: #160706;
      }

      .cls-154 {
        fill: #6b88a6;
      }

      .cls-155 {
        fill: #0c0707;
      }

      .cls-156 {
        fill: #c9bfac;
      }

      .cls-157 {
        fill: #53596c;
      }

      .cls-158 {
        fill: #2b3f58;
      }

      .cls-159 {
        fill: #f1a298;
      }

      .cls-160 {
        fill: #ef9683;
      }

      .cls-161 {
        fill: #3e4a5b;
      }

      .cls-162 {
        fill: #ca7665;
      }

      .cls-163 {
        fill: #3c485c;
      }

      .cls-164 {
        fill: #242828;
      }

      .cls-165 {
        fill: #475a72;
      }

      .cls-166 {
        fill: #f99386;
      }

      .cls-167 {
        fill: #3c4f67;
      }

      .cls-168 {
        fill: #2a3f58;
      }

      .cls-169 {
        fill: #c97465;
      }

      .cls-170 {
        fill: #3b4f61;
      }

      .cls-171 {
        fill: #e58369;
      }

      .cls-172 {
        fill: #7a8796;
      }
    </style>
  </defs>
  <path class="cls-148" d="M0,72.9c0-.6,.2-1.1,.6-1.5,.4-.4,1-.6,1.6-.6s1.4,.4,1.9,1.2c.7,1.1,1.4,1.9,2,2.3,1.2,.8,3.1,1.2,5.4,1.2s4.4-.5,6.3-1.5c2.5-1.3,3.7-3,3.7-5.3s-1.1-3.3-3.2-4.4c-1.8-.9-4-1.4-6.6-1.5-2.3,0-4.3-.6-5.9-1.5-2.1-1.2-3.1-2.9-3.1-5.1s1.5-5,4.5-7.2c2.8-2,5.8-3.1,8.8-3.1s3,.2,4.8,.7c2.4,.6,3.6,1.4,3.6,2.4s-.7,1.9-2,1.9-1.6-.2-3.1-.5c-1.5-.3-2.6-.5-3.4-.5-2.3,0-4.2,.6-5.8,1.7-1.6,1.1-2.5,2.5-2.5,4.1s1.1,2.1,3.3,2.6c.8,.2,2.4,.4,4.7,.5,3.4,.3,6,1.3,7.9,3.2,1.7,1.7,2.6,3.8,2.6,6.2,0,3.5-1.6,6.3-4.9,8.4-2.8,1.8-6.1,2.7-9.8,2.7s-5.2-.5-7.4-1.5C1.4,76.8,0,75.1,0,72.9Z"/>
  <path class="cls-148" d="M36.6,68.4c0,.9,0,2.2,0,4,0,1.8,0,3.1,0,4s-.2,1.2-.6,1.6c-.4,.4-.9,.6-1.6,.6s-1.2-.2-1.6-.6c-.4-.4-.6-.9-.6-1.6s0-2.2,0-4c0-1.8,0-3.1,0-4,0-1.4,0-3.1,.2-5.2,.1-2.1,.2-3.8,.2-5.2s.2-1.2,.6-1.6c.4-.4,.9-.6,1.6-.6s1.2,.2,1.6,.6c.4,.4,.6,.9,.6,1.6,0,1.4,0,3.1-.2,5.2-.1,2.1-.2,3.8-.2,5.2Zm-1-17.9c-.7,0-1.3-.3-1.8-.8-.5-.5-.8-1.1-.8-1.8s.3-1.3,.8-1.8c.5-.5,1.1-.7,1.8-.7s1.3,.3,1.8,.7c.5,.5,.8,1.1,.8,1.8s-.3,1.3-.8,1.8c-.5,.5-1.1,.8-1.8,.8Z"/>
  <path class="cls-148" d="M76.8,80.2c-.8,0-1.4-.4-2-1.2-.4-.7-.8-1.9-1.2-3.5l-.8-3.8c-.6-2.4-1.6-7.5-2.9-15.6l-4.4,13.3-1.3,4.2c-.5,1.7-1.1,3-1.7,4.1-.6,1.1-1.4,1.7-2.5,1.7s-1.6-.5-2.1-1.4c-.3-.6-.6-1.4-.9-2.4l-.6-2.4c-1.5-5.2-2.8-10.7-3.9-16.7l-.8,3.9-2.8,11.6c-.1,1.4-.5,3.4-1.1,6.1-.4,1.1-1.2,1.7-2.2,1.7s-1.3-.3-1.7-.8c-.4-.4-.6-1-.6-1.6,0-2.5,.5-5.5,1.5-9l2.4-8.9,1.3-6.9c.6-3.2,1.3-5.4,2.1-6.4,.6-.9,1.3-1.3,2.2-1.3s1.7,.5,2.1,1.6c.6,1.3,1.2,4,1.9,8,.8,4.8,2,10.1,3.6,15.7,2.2-5.7,4.1-11.6,5.6-17.7l.7-3.2c.3-1.3,.6-2.3,1-3.1,.6-1.1,1.4-1.6,2.4-1.6s2.2,1.2,2.9,3.7c.2,.8,.5,2.6,.9,5.2,.9,6.6,1.9,12.3,3.2,17l1.1,3.8c.6,2,.8,3.3,.8,3.7s-.2,1.2-.7,1.6-1,.6-1.6,.6Z"/>
  <path class="cls-148" d="M201.6,61l-.3,11c0,1.2,0,2.9-.2,5.1-.1,1.5-.9,2.2-2.2,2.2s-2.2-.7-2.2-2.2,0-4.4,.2-8c.2-3.6,.2-6.2,.2-8s0-5,.1-8c0-3,.1-5.6,.1-8s.7-2.2,2.2-2.2,2.2,.7,2.2,2.2c0,2.3,0,5-.1,8,0,3-.1,5.6-.1,8Z"/>
  <path class="cls-148" d="M213.6,68.4c0,.9,0,2.2,0,4,0,1.8,0,3.1,0,4s-.2,1.2-.6,1.6c-.4,.4-.9,.6-1.6,.6s-1.2-.2-1.6-.6c-.4-.4-.6-.9-.6-1.6s0-2.2,0-4,0-3.1,0-4c0-1.4,0-3.1,.2-5.2,.1-2.1,.2-3.8,.2-5.2s.2-1.2,.6-1.6c.4-.4,.9-.6,1.6-.6s1.1,.2,1.6,.6c.4,.4,.6,.9,.6,1.6,0,1.4,0,3.1-.2,5.2-.1,2.1-.2,3.8-.2,5.2Zm-1-17.9c-.7,0-1.3-.3-1.8-.8-.5-.5-.8-1.1-.8-1.8s.3-1.3,.8-1.8c.5-.5,1.1-.7,1.8-.7s1.3,.3,1.8,.7c.5,.5,.8,1.1,.8,1.8s-.3,1.3-.8,1.8c-.5,.5-1.1,.8-1.8,.8Z"/>
  <path class="cls-148" d="M241.3,58.9c-.2,2.2-.3,4.3-.3,6.5,0,4.9,.2,8.6,.7,11.1,0,.2,0,.4,0,.5,0,.6-.2,1.1-.6,1.5-.4,.4-.9,.6-1.4,.6-.9,0-1.6-.7-2-2-1.1,.8-2.2,1.4-3.3,1.8s-2.3,.6-3.6,.6c-3,0-5.6-1-7.6-3-2.1-2.1-3.1-4.7-3.1-8s1-7.1,3.1-9.4c2.1-2.4,4.8-3.5,8.1-3.5s3,.3,3.9,.8l2.1,1.5c.2-6.2,.4-10.4,.7-12.5,.2-1.3,.9-2,2-2s2,.7,2,2.1c0,2-.3,6.6-.9,13.5Zm-9.8,.6c-2.5,0-4.3,.7-5.6,2.2-1.2,1.5-1.9,3.7-1.9,6.6s.7,3.5,2,4.9c1.3,1.4,2.9,2.1,4.7,2.1s2.3-.2,3.1-.7c.5-.3,1.3-.9,2.4-1.8,.2-.2,.4-.4,.6-.7v-3.8c0,0,0-2.6,0-2.6v-2.6c-.5-1.2-1.3-2.1-2.2-2.7s-2-.9-3.3-.9Z"/>
  <path class="cls-148" d="M257.9,79.4c-3.3,0-6-.8-8.1-2.5-2.2-1.8-3.4-4.4-3.4-7.7s.9-7,2.8-9.6c2-2.8,4.7-4.2,8.1-4.2s4.4,.4,6,1.2c1.9,1,2.8,2.6,2.8,4.7s-.8,2.8-2.5,4c-.7,.5-2.3,1.4-4.7,2.5l-8.4,4c.8,1.2,1.8,2.1,3.1,2.8,1.2,.6,2.7,.9,4.3,.9s2.2-.2,3.6-.6c1.7-.5,2.9-1.1,3.4-1.9s1-1.2,1.6-1.2,1,.2,1.4,.6c.4,.4,.6,.8,.6,1.4,0,1.6-1.3,3-3.9,4.2-2.2,1-4.4,1.5-6.6,1.5Zm-.6-20.1c-1.8,0-3.3,.7-4.5,2.1-1.2,1.4-2.1,3.5-2.7,6.3l6.8-3.2c2.7-1.3,4.6-2.4,5.7-3.4-1.3-1.2-3-1.8-5.3-1.8Z"/>
  <path class="cls-148" d="M289.4,62.1c-.1,1.8-.8,2.8-2.2,2.8s-1.9-.7-1.9-2.2,0-.8,0-1.5v-1.9c-2.4,.3-4.2,.9-5.6,2-1.3,1-2.4,2.4-3.3,4.3v12.1c0,1.5-.7,2.2-2.1,2.2s-1.9-.7-1.9-2.2v-15.5c0-.5,0-1.2,0-2.2,0-1,0-1.7,0-2.2,0-1.5,.6-2.2,1.9-2.2s2.2,1.2,2.2,3.7c2.8-2.7,6-4.1,9.4-4.1s2.1,.4,2.7,1.3c.6,.9,.9,2.2,.9,4.1s0,1.3,0,1.5Z"/>
  <path class="cls-126" d="M96.7,62.4c0-.7,.2-1.5,.4-2.4-.5-.3-1-.5-1.4-.6-.4-.1-.7-.2-.9-.2-2.3,0-4.2,.9-5.9,2.8-1.7,1.9-2.5,4-2.5,6.4s.4,4.2,1.3,5.4,2.1,1.8,3.8,1.8,2.6-.3,3.6-.8c.5-.3,1.3-.8,2.2-1.7-.5-3.9-.7-6.8-.7-8.8s0-1.3,.1-2.1Z"/>
  <path class="cls-126" d="M173.6,46.2c.3-.2,.5-.4,.8-.6-.7,.1-1.3,.3-2,.3-1.4,.1-2.9,.2-4.5,.3,.7,.8,1.3,1.6,1.9,2.4,.3,.3,.5,.6,.8,1,.9-1.2,1.9-2.3,3-3.3Z"/>
  <path class="cls-148" d="M102.6,76.2c-.8-1.9-1.2-3.2-1.4-3.9-.3-1.1-.4-2.5-.4-4.3,0-2,0-3.6,.1-4.9s.2-2.2,.3-2.8c.3-.3,.4-.7,.4-1.1,0-1.2-1-2.2-3-3-1.6-.7-3-1-4.3-1-3.4,0-6.3,1.3-8.8,3.8-2.4,2.5-3.7,5.6-3.7,9.1s.7,6.6,2.2,8.4c1.6,1.9,4.1,2.9,7.5,2.9s1.6-.2,2.7-.6c1.1-.4,2.3-1,3.7-1.7,.3,.5,.8,1,1.5,1.6,.7,.6,1.2,1,1.5,1,.5,0,1-.2,1.4-.6,.4-.4,.6-.9,.6-1.5v-.4c-.4-.5-.5-.9-.6-1.2Zm-7.5-1.3c-1,.5-2.2,.8-3.6,.8s-3-.6-3.8-1.8-1.3-3-1.3-5.4,.8-4.6,2.5-6.4c1.7-1.9,3.6-2.8,5.9-2.8s.5,0,.9,.2c.4,.1,.9,.3,1.4,.6-.2,.8-.3,1.6-.4,2.4,0,.7-.1,1.4-.1,2.1,0,1.9,.2,4.9,.7,8.8-1,.8-1.7,1.4-2.2,1.7Z"/>
  <path class="cls-148" d="M112.4,61.6c0-.2-.2-.4-.3-.6-.8,1.1-1,2.7-2.6,2.7-1.2,0-1.7-1-2.1-2.1,0,1.4-.1,3.1-.3,5.3-.2,2.7-.3,4.8-.3,6.3s0,1.1,.1,2c0,.9,.1,1.5,.1,2,0,.7,.2,1.2,.6,1.6,.4,.4,.9,.6,1.6,.6s1.2-.2,1.6-.6c.4-.4,.6-.9,.6-1.6s0-1.1-.1-2c0-.9-.1-1.5-.1-2,0-.7,0-1.4,.1-2.1,.1-.9,.2-1.6,.2-2.2,.7-2.3,1.5-4.3,2.6-5.9-.8-.1-1.3-.7-1.7-1.4Z"/>
  <path class="cls-148" d="M118.4,58.1c-.8-.2-1.3-.2-1.4,.9,0,.3,0,.7-.2,1,.4-.3,.8-.4,1.2-.6,0-.4,.2-.7,.3-1.1,0,0,0-.2,0-.3Z"/>
  <path class="cls-148" d="M122.9,64c-.3,.3-.9,.7-1.2,.3-.2-.2-.4-.4-.6-.6,0,0,0,.2,0,.3,0,.4,0,1.1,0,2.1s0,1.7,0,2.1c0,1.5,.1,3.1,.3,4.8l.6,4.8c.2,1.4,.9,2.1,2.1,2.1s1.2-.2,1.6-.6,.6-.9,.6-1.6c0-1.2-.2-2.8-.5-4.7-.3-1.9-.5-3.5-.5-4.7v-2.1s0-2.2,0-2.2c0-.2,0-.3,0-.4-.4,0-.9-.3-1.5-.8-.3,.4-.5,.9-.8,1.2Z"/>
  <path class="cls-148" d="M133.5,56.5c-.3,0-.5,0-.8,0,0,0,0,0,0,0-.4,.4-.6,.9-.6,1.6,0,1.4,0,3.1-.2,5.2-.1,2.1-.2,3.8-.2,5.2s0,2.2,0,4,0,3.1,0,4,.2,1.2,.6,1.6c.4,.4,.9,.6,1.6,.6s1.2-.2,1.6-.6c.4-.4,.6-.9,.6-1.6s0-2.2,0-4c0-1.8,0-3.1,0-4,0-1.4,0-3.1,.2-5.2,.1-2.1,.2-3.8,.2-5.2s0-.7-.2-1c-.7-.1-1.4-.2-2.1-.4-.2,0-.4-.1-.6-.1Z"/>
  <path class="cls-148" d="M147.7,56.3c0,0-.1,0-.2,0,0,0-.1,0-.2,0-2.9,1.3-4.3,3.5-4.3,6.6s.6,2.9,1.8,3.7c.8,.6,2.2,1.1,4.2,1.5l2.3,.5c2.8,.7,4.2,2.1,4.2,4.1s-.7,1.6-2.1,2c-.9,.3-2,.4-3.3,.4s-1.5,0-2.5-.3c-1.2-.2-2-.5-2.4-.8-.7-.7-1.3-1.1-1.8-1.1s-1.1,.2-1.6,.7c-.5,.4-.7,1-.7,1.5,0,1.5,1.1,2.6,3.4,3.4,1.7,.6,3.6,1,5.5,1s4.8-.5,6.5-1.5c2.1-1.2,3.1-3,3.1-5.4s-1.2-5.2-3.6-6.7c-1.6-1.1-4.2-1.9-7.5-2.5-.4,0-.9-.2-1.3-.4,0-1.4,1.2-2.5,3.6-3.5,.2,0,.4-.1,.7-.2,0-.3-.2-.6-.3-.9-.6-1.7-1.8-2.4-3.5-2.3Z"/>
  <path class="cls-148" d="M191.5,61.4c-.4-.4-1-.6-1.6-.6-7.8,0-13.3,1-16.4,2.9-.8,.5-1.2,1.1-1.2,1.9s.2,1.1,.6,1.6c.4,.5,1,.8,1.6,.8s.7,0,1-.2c2.9-1.4,6.4-2.2,10.5-2.4-.8,3.3-2.2,5.8-4.3,7.6-1.9,1.7-4.2,2.5-6.9,2.5s-4.2-.6-5.1-1.8c-.9-1.1-1.3-3-1.3-5.8s.1-2.8,.4-4.2c-.2-.2-.4-.4-.6-.6-.6-.5-.7-1.2-1.2-1.9-.4,.6-.6,1.2-1.3,1.5-.5,.4-.9,.6-1.3,.5-.3,1.6-.5,3.2-.5,4.7,0,4,.9,7.1,2.7,9.1,1.8,2,4.5,3,8.1,3s7.4-1.3,10.3-4c2.9-2.7,4.8-6.3,5.7-10.8,.8-.4,1.2-1.1,1.2-2.1s-.2-1.2-.6-1.6Z"/>
  <path class="cls-148" d="M173.7,46.4c-.3,.2-.5,.4-.8,.6-1.1,1-2.1,2.1-3,3.3,1,1.2,1.9,2.5,2.9,3.7,0,0,0,0,0,0,1.1-1.5,2-2.6,2.6-3.1,1.2-1.1,2.4-1.7,3.5-1.7s3.4,.7,5.7,2.1c.6,.4,1,.6,1.4,.6,.6,0,1.1-.2,1.6-.7s.7-1,.7-1.6c0-1.3-1.3-2.4-4-3.5-2.2-.9-4-1.3-5.3-1.3s-.2,0-.3,0c-.8,.5-1.6,.9-2.5,1.2-.8,.3-1.6,.5-2.4,.6Z"/>
  <path class="cls-155" d="M169.7,63.7c1.4-.2,1.7-1.4,2.3-2.5,.7,.7,1.2,1.7,2.3,1.2,1.2-.4,1.4-1.5,1.4-2.6,.1-2.1-.3-4-1.5-5.7-.2-.3-.5-.7-.8-1-2.4,3.2-4,6.7-4.6,10.3,.2,.2,.5,.2,.9,.2Z"/>
  <path class="cls-155" d="M114.6,62.2c-.2,.3-.4,.5-.6,.8,0,0,.1,0,.2,0,1,0,1.5-.7,2-1.4,.3-.5,.5-1.1,.7-1.7-.8,.5-1.6,1.2-2.3,2.2Z"/>
  <path class="cls-155" d="M119.3,59.2c-.4,0-.8,0-1.2,.2-.2,1-.2,2,.3,2.9,.6,.9,1.7,.9,2.6,1.5,0-3-.6-4.5-1.8-4.5Z"/>
  <path class="cls-155" d="M170.6,49.5c-.3-.3-.5-.6-.8-1-.6-.8-1.2-1.5-1.9-2.4,1.6,0,3-.1,4.5-.3,.7,0,1.3-.2,2-.3,1.6-1.2,3.2-1.8,4.9-1.9,6.3-3.8,8.8-12.2,4.8-18.4-1.8-2.8-3.4-5.7-4.4-8.9-.8-2.6-3.1-3.5-5.6-2.4-2.1,.9-3.3,2.5-3.3,4.8,0,2.4,.8,4.4,2.6,6,.3,.4,.6,.8,1,1,.4,.4,.7,.8,1.1,1.2,3.2,3.4,2.6,7.2-1.6,9.2-4,2-8.3,2.3-12.7,1.3-.5-.1-.7-.3-.6-.9,1.2-4.2,.6-8.2-.8-12.2-.2-.7-.2-1,.5-1.4,3-1.7,4.4-4.2,3.6-7.8-.4-2-.6-4,.2-6,.6-1.4,.8-2.9,.8-4.5,0-3.3-2-5.1-5.2-4.7-4.8,.6-10.2,5.7-11.1,10.4-.1,.7-.3,.7-.9,.5-5.5-2.2-11.1-2.2-16.6,0-.4,.2-.7,.2-.8-.3-1.1-4.9-4.5-7.8-8.8-9.8-1.1-.5-2.2-.8-3.5-.7-2.3,0-4,1.7-4.1,4,0,1.5,0,2.9,.5,4.3,1,2.5,1,5,.4,7.5-.6,2.9,.3,5.2,2.8,6.7,1.6,.9,1.4,1.8,1,3.2-1.3,4.4-1.7,8.9,.5,13.2,.3,.7,0,.8-.4,1.1-5.5,3.5-9.7,8.4-13.5,13.6-.3,.2-.5,.4-.5,.8-1.3,2.2-2.1,4.6-1,7.1,0,.6,.5,.8,1,1,1.2,.4,1.6-.8,2.4-1.2,0,.1,.1,.2,.2,.3,0-.4,0-.7,0-1,0-.5,0-1.2,0-2.1,0-.9,0-1.6,0-2.1s.2-1.2,.6-1.6c.4-.4,.9-.6,1.6-.6,1.4,0,2.1,1,2.2,2.9v2.6c2.5-3.3,5.1-4.9,7.7-4.9s4,1,4.9,3.1c.6,1.3,.9,3.2,1,5.7,.8,.1,1.3-.4,1.7-1.7,.2-.5,.3-1,.4-1.5,.9-3.5,2.2-4.5,5.4-4.1,.4-.4,.9-.6,1.5-.6s1.2,.2,1.6,.6c.2,.2,.3,.4,.4,.6,3,.5,5.9,.4,8.9-.4,.8-.2,1.6-.2,2.5-.3,.9-.4,2.2-.8,4.1-1.4,1.9-.6,3.3-1,4.2-1.4,.6-.3,1.3-.4,2-.4s1.1,.2,1.6,.6c.4,.4,.6,.9,.6,1.6s0,1.1,.3,1.9,.3,1.4,.3,1.9c0,.7-.2,1.2-.6,1.6-.4,.4-.9,.6-1.6,.6s-1.4-.3-1.7-.8c-.2-.4-.4-1.2-.6-2.4-1,.3-2.5,.7-4.4,1.3,.3,1,.5,1.9,.9,2.9,.5,1.2,1.4,1.7,2.3,1,.6-.5,.7-.4,1.2,.2,.8,1.2,1.7,1.1,2.6,0,.2-.2,.3-.5,.7-.4,1.2,.3,1.6-.6,1.9-1.5,.4-1.2,0-2.3-.3-3.5,.9-.3,1.3,0,1.5,.9,.1,1.2,.4,2.3,1.2,3.3,.4,.4,.7,.7,1.1,.7,.4-2.3,1.2-4.6,2.2-7,1.1-2.5,2.4-4.6,3.9-6.5Zm-33.9,.2c-.5,.5-1.1,.8-1.8,.8s-1.3-.3-1.8-.8c-.5-.5-.8-1.1-.8-1.8s.3-1.3,.8-1.8c.5-.5,1.1-.7,1.8-.7s1.3,.3,1.8,.7c.5,.5,.8,1.1,.8,1.8s-.3,1.3-.8,1.8Z"/>
  <path class="cls-155" d="M134.9,45.3c-.7,0-1.3,.3-1.8,.7-.5,.5-.8,1.1-.8,1.8s.3,1.3,.8,1.8c.5,.5,1.1,.8,1.8,.8s1.3-.3,1.8-.8c.5-.5,.8-1.1,.8-1.8s-.3-1.3-.8-1.8c-.5-.5-1.1-.7-1.8-.7Z"/>
  <path class="cls-155" d="M176.8,44.9c.9-.3,1.7-.7,2.5-1.2-1.7,0-3.3,.7-4.9,1.9,.8-.2,1.6-.4,2.4-.6Z"/>
  <polygon class="cls-155" points="107.1 58.1 107.1 58.1 107.1 58.1 107.1 58.1"/>
  <path class="cls-155" d="M108.2,57.7s0,0,0,0c0,0,0,0,0,0,0,0,0,0,0,0Z"/>
  <path class="cls-155" d="M130.1,47.5s0,0,0,0c0,0,0,0,0,0,0,0,0,0,0,0Z"/>
  <path class="cls-155" d="M145.6,34.5s0,0,0,0h0s0,0,0,0c0,0,0,0,0,0h0Z"/>
  <path class="cls-155" d="M147.9,46.5h0s0,0,0,0c0,0,0,0,0,0,0,0,0,0,0,0h0Z"/>
  <path class="cls-155" d="M152,34.8s0,0,0,0c0,0,0,0,0,0,0,0,0,0,0,0Z"/>
  <path class="cls-155" d="M162.3,54.4s0,0,0,0c0,0,0,0,0,0,0,0,0,0,0,0Z"/>
  <path class="cls-155" d="M165.5,54.7c0,0,0-.1,0-.2,0,0,.1,.1,.2,.2,0,0,0,0-.1,0Z"/>
  <path class="cls-155" d="M170.6,59.4s0,0,0,0c0,0,0,0-.1,0,0,0,0,0,.1,0Z"/>
  <path class="cls-65" d="M172.9,25.4c-1.8-1.6-2.6-3.6-2.6-6,0-2.3,1.2-3.9,3.3-4.8,2.5-1.1,4.8-.2,5.6,2.4,1,3.2,2.5,6,4.4,8.9,4.5,7,.8,16.8-7.4,19.6-1.4,.5-2.9,.8-4.3,1-1.4,.1-2.9,.2-4.5,.3,.7,.8,1.3,1.6,1.9,2.4,0,.4-.3,.4-.4,.3-.5-.5-.4,0-.6,.3-.3,0-.6,0-.8-.3-1-1.3-2.2-2.3-3.4-3.3-.8-.7-1.6-1.4-2.5-2.1-.5-.5-1.1-.9-1.7-1.3q-1.4-1.1-2.7,0c-.3,.1-.5,.3-.8,.2-.4-.3-1.4,.3-1.2-.8,0-.2,.2-.3,.3-.4,3.5-2.9,4.1-6.7,3.6-10.9,0-.5,0-.9-.2-1.4,0-.2,0-.4-.1-.6-.2-1.5-.8-2.8-1.2-4.2-.9-2.4-2.2-4.6-3.8-6.5-1.6-1.9-3.6-3.4-5.9-4.5-1.2-.5-2.5-1-3.8-1.4-3.3-.7-6.7-1-10,0-1.4,.3-2.8,.8-4.2,1.4-2.2,1-4,2.6-5.6,4.4-2.4,2.7-3.9,5.8-4.7,9.2-.2,.6-.3,1.2-.4,1.8,0,.1,0,.3,0,.4-.2,1.9-.5,3.8-.2,5.7,.6,3.8,2.5,6.4,6.1,7.8,.8,.3,1.5,.6,2.3,.7,2.4,.3,4.4,1.4,6.5,2.6,2,1.2,4.1,2.1,6.5,1.7,1.2-.2,2.4-.7,3.4-1.4,2.2-1.4,4.6-2.5,7.3-2.9,1.1-.2,2.1-.8,3.3-.9,.6,.2,.7,.6,.7,1.1-.3,.7-1,.8-1.6,1.1-.4,.1-.7,.2-1.1,.3-.6,.1-1.2,.3-1.8,.4-.9,0-1.8,.2-2.5,.8-.3,.2-.3,.6-.6,.8-1.2-.1-2.2,.6-3.2,1.1-1.5,.8-3.1,1.3-4.8,1.4-2.5,.1-4.6-.8-6.6-2-.9-.5-1.6-.6-2.2,.2-.3,.2-.5,.4-.9,.3-.1,0-.2-.1-.2-.2,0-.5,.5-.8,.8-1.1,0-.1,.1-.2,.1-.3-.1-.2-.3-.2-.5-.2-1-.5-2.1-.7-3.2-.9-.2,0-.4,0-.5-.1-2.2-.6-4.2-1.5-5.9-3-.6-.5-1.1-.5-1.7,0-.7,.5-1.4,1.1-2.1,1.6-.9,.7-1.9,1.4-2.7,2.3-1.4,1.4-2.7,2.7-4.1,4.2,2.1-.6,4.1-1.2,6.2-.6,.5,.1,1.1,.2,1.3,.8,0,.6-.4,.8-.9,1-1.2,0-2.4-.4-3.6,0-2.5,.5-4.8,1.5-6.5,3.4-.2,.3-.5,.5-.8,.5-.6-.2-.5-.7-.5-1.2,3.8-5.3,8-10.1,13.5-13.6,.4-.3,.8-.4,.4-1.1-2.3-4.3-1.9-8.8-.5-13.2,.4-1.4,.6-2.3-1-3.2-2.5-1.4-3.4-3.8-2.8-6.7,.5-2.5,.5-5-.4-7.5-.5-1.3-.6-2.8-.5-4.3,.1-2.3,1.8-3.9,4.1-4,1.2,0,2.4,.2,3.5,.7,4.3,2,7.7,4.9,8.8,9.8,.1,.6,.4,.5,.8,.3,5.5-2.2,11.1-2.2,16.6,0,.6,.2,.8,.2,.9-.5,.9-4.7,6.4-9.8,11.1-10.4,3.3-.4,5.3,1.4,5.2,4.7,0,1.5-.2,3.1-.8,4.5-.8,2-.6,4-.2,6,.8,3.5-.6,6.1-3.6,7.8-.7,.4-.7,.7-.5,1.4,1.4,4,2,8.1,.8,12.2-.2,.6,0,.7,.6,.9,4.4,1,8.6,.7,12.7-1.3,4.2-2.1,4.8-5.8,1.6-9.2-.4-.4-.7-.8-1.1-1.2,0-.6,.3-.7,.8-.9,.8,.2,1.3,.8,1.8,1.4,.2,.2,.3,.4,.5,.6,3.3,4,1.3,8.6-2.5,10.5-3.7,1.9-7.6,2.4-11.7,2-.8,0-1.7-.2-2.5-.3,0,0-.2,0-.3,.2,1.7,1.4,3.6,2.7,5.3,4.2,.6,.7,1.5,.8,2.3,.8,2.8,0,5.5-.3,8.1-1.1,4.6-1.5,8.3-6.5,8.2-11.4,0-3.1-1.2-5.7-3-8-1.3-2.1-2.2-4.4-2.9-6.7-.7-2.1-2.1-2.6-4.1-1.7-2.2,1.2-2.3,4.7-1.1,6.4,.4,.5,.9,1,1,1.8,0,.5,0,1-.8,1Z"/>
  <path class="cls-46" d="M168.4,49.6c-.1-.3-.2-.7-.3-1,.8-.5,.6,1,1.4,.5,1.5,1.9,3,3.7,4.4,5.7,1.2,1.7,1.6,3.6,1.5,5.7,0,1.1-.3,2.2-1.4,2.6-1.1,.4-1.7-.6-2.3-1.2-.6,1-.9,2.3-2.3,2.5-.6,0-1.1-.3-1.4-.9,0-.8,.6-.5,1-.5,.5,0,1,.2,1-.5,0-.1,0-.2,0-.3,0-.3,.2-.7,.2-1.1,0-.4,.2-.7,.4-1.1,.3-.5,.6-.8,1.2-.8,.5,.3,.7,.9,1,1.3,.2,.2,.3,.6,.6,.5,.4,0,.4-.5,.4-.8,0-2.8-1-5.1-3.3-6.8-1.9-1.3-4-2-6.3-2.2-2.4-.2-4.7,1.5-5.5,3.8-.3,1.7,0,2,1.7,1.9,.9,0,.8-.7,.9-1.2,.1-.3,.2-.8,.7-.7,.4,0,.5,.5,.7,.8,0,.3,.2,.6,.2,.8,0,1.3,.3,2.5,.6,3.8,.2,.9,.7,1.5,1.7,1.7,.3,.3,.3,.7,.3,1.1-.9,.7-1.6,.7-2.5-.3-.8-.9-1.1-2.1-1.2-3.3-.1-1-.5-1.2-1.5-.9,.3,1.1,.7,2.3,.3,3.5-.3,1-.7,1.8-1.9,1.5-.4,0-.5,.1-.7,.4-.9,1.2-1.8,1.3-2.6,0-.4-.6-.6-.6-1.2-.2-.8,.7-1.8,.2-2.3-1-.5-1.2-.7-2.5-1.2-3.8-.6-1.7-1.8-2.4-3.5-2.3-.9,0-1.8,0-2.7,.3-3.6,1-7.3,1-10.9,0-.2,0-.4-.1-.6-.1-3.8-.6-5.2,.3-6.2,4-.1,.5-.2,1-.4,1.5-.6,1.9-1.6,2.2-3.2,.9-.3,.4-.5,.9-.8,1.2-.3,.3-.9,.7-1.2,.3-.8-1.1-2.5-.9-3.2-2-.8-1.2-.5-2.6,0-3.9,0,0,0-.2,0-.3-.8-.2-1.3-.2-1.4,.9,0,.9-.3,1.8-.8,2.7-.4,.7-1,1.4-2,1.4-1,0-1.5-.7-1.9-1.5,0-.2-.2-.4-.3-.6-.8,1.1-1,2.7-2.6,2.7-1.4,0-1.8-1.3-2.3-2.4-.8,.4-1.2,1.6-2.4,1.2-.5-.2-.9-.4-1-1,0-.4,.2-.7,.2-1.1,0-1.8,.2-3.6,.8-5.3,0-.2,0-.5,0-.7,0-.3,.2-.6,.5-.8,.2,.3,.2,.8,.6,1.1,.3,.5,0,1-.3,1.4-.5,1.1-.8,2.2-.7,3.5,0,.4-.2,1,.3,1.1,.5,.1,.6-.5,.8-.8,.4-.5,.4-1.1,.7-1.6,0,0,.2-.1,.3-.1,.2,0,.4,.5,.6,0,0-.3,.2-.6,.6-.3,.1,.2,.2,.5,.2,.7,0,.5,0,1,0,1.5,0,.5,.1,.9,.4,1.4,.4,.7,.8,.6,1.2,0,.6-1.1,1.1-2.2,1.4-3.3,.1-.5,.2-1,.5-1.4,.3-.2,.4-.5,.3-.8,0-.1,0-.2,.1-.3,.2-.1,.3-.2,.5,0,.4,.4,.3,.9,.4,1.4,0,1.1-.1,2.2,.2,3.3,0,.2,0,.4,.1,.6,.1,.3,.2,.6,.5,.6,.4,0,.6-.3,.7-.6,.3-.6,.4-1.4,.6-2.1,.2-1.1,.4-2.1,.5-3.2,.2-.6,.3-1.6,1.2-.6,.4,1.5,.6,1.7,2,1.6,.8,0,1.1-.4,.9-1.2-.1-1.4-1.1-2.4-1.7-3.5,0-.5-.2-1,.4-1.3,1.3,.1,1.7,1.1,2.3,2,.1,.3,.2,.6,.3,.9,0,.5,.3,.9,.7,1.3,1.7,1.9,3.7,2.2,5.9,1,1.8-1,3.8-.9,5.7-.6,.8,.1,1.7,.3,2.5,.5,2.3,.5,4.6,.5,6.9-.1,3.1-.8,6.1-.9,9,.8,.2,.1,.4,.1,.6,.2,1.3,.4,2.4-.4,3.4-1,.5-.3,.9-.7,1-1.2,0-.2,0-.3,.1-.5,.1-.4,.3-.8,.5-1.1,1.9-3.1,5.5-4.3,9.6-3.1,.4,.1,1,.7,1.2-.2Z"/>
  <path class="cls-54" d="M170.1,62.3c.2,.9-.3,1.2-1.1,1.1-.4,0-.9-.5-1.2,.1-.6-.5-.7-1.2-1.2-1.9-.4,.6-.6,1.2-1.3,1.5-.4-.3-.2-.7-.3-1.1-.3-.4,0-.7,0-1.1,0-.1,0-.3,.1-.4,.1-1.5,.1-3-.2-4.4,0-.4-.2-.8,.3-1,.4-.1,.6,.2,.8,.5,.3,.4,.5,.8,.7,1.2,.4,1.5,.9,3,1.5,4.5,.2,.5,.4,.9,.8,1.2,.5,.2,.7-.4,1.1-.3Z"/>
  <path class="cls-65" d="M104.4,54.9c.6,.2,.3,.7,.2,1.1-.6,1.6-.8,3.2-.7,4.9,0,.5,0,.9-.5,1.2-1.1-2.6-.3-4.9,1-7.1Z"/>
  <path class="cls-74" d="M172.9,25.4c.4-.3,.5-.7,.6-1.1,.4,0,.6,.2,.8,.4,.1,.1,.2,.2,.3,.4,.1,.2,.3,.4,0,.6-.2,.3-.5,.5-.7,.8-.4-.3-.8-.6-1-1Z"/>
  <path class="cls-93" d="M144.4,11.8c1.3,.3,2.6,.8,3.8,1.4,0,.1,.1,.2,.1,.4,0,1-.1,1.9,.1,2.9,.1,.5,0,1.1,0,1.6-.1,.5-.3,1-.4,1.5-.2,.5-.5,.9-.8,1.3-1.5,2.1-1.5,4.6-1.4,7,0,2.2,.5,4.3,.6,6.4,0,.3,.1,.6-.2,.8-.4,.2-.5,0-.7-.4,0,0,0,.2-.1,.3,0,.1-.2,.2-.3,.1-.3-.2-.4-.5-.4-.8,0-2.4-1.2-4.1-3.1-5.4-.3-.3-.7-.5-.7-1,0-.2,.4-.4,0-.5-.5-.2-1.1-.4-1.6,.2,0,0-.2,.1-.3,.2-2.6,.7-4.2,2.4-5.3,4.7-.2,.3-.2,.7-.4,1-.9,.5-1.1,0-1.1-.8-.1-1.2,.5-2.4,.1-3.7,0-.1,0-.3,0-.4,.1-1.2,.1-2.4,0-3.6-.2-1.7-.8-3.3-1.5-4.8-.5-1-.8-2-.9-3.2,.2-1.2,0-2.4,0-3.6,0,0,0-.1,0-.2,1.3-.8,2.6-1.3,4.1-1.5,.7,2.7,1.6,5.4,2.2,8.2,.3,1.5,.8,2.8,1.9,3.9,.9,.9,1.5,.9,2.3-.2,.8-1.1,1.4-2.4,1.7-3.8,.4-2.6,1.7-5.1,1.9-7.8,0-.2,.2-.5,.5-.4Z"/>
  <path class="cls-93" d="M129.6,48.1c.2-.1,.5-.2,.7-.4,.5-.1,.8,.2,1.1,.5,4.8,3.5,10.6,3.5,15.3,0,.3-.3,.6-.6,1.1-.6,.4,0,.6,.2,.8,.5,.1,.5,0,.9-.5,1.1-.7,.3-.4,.9-.2,1.3,.3,.5,.9,.5,1.4,.2,.6-.3,.5-.7,.2-1.2-.2-.4-.5-.8,0-1.2,.4-.2,.9-.2,1.3-.2,.2,0,.4,0,.6,0,.6,0,1.1,.2,1.6,.6,.2,.1,.3,.2,.4,.4,.3,.4,.5,.8,.5,1.3,0,.4-.5,.7,0,1.1,.4,.4,.3,1,.8,1.3,.2,.2,.4,.4,.6,.7,0,.2,.1,.4,.1,.6-.5,1.5-1.4,2-2.9,1.7-1-.2-1.8-.6-2.7-1-1.2-.6-2.4-.7-3.7-.4-4.6,1-9.1,1.2-13.7,0-1.3-.3-2.5-.1-3.7,.5-.8,.4-1.5,.7-2.4,.9-1.7,.5-2.6,0-3.3-1.7,0-.1,0-.3,0-.4,.2-.5,.8-.7,1-1.2,.1-.2,.2-.5,.3-.8,.1-.3,.1-.7,.1-1,0-.4,0-.7,.2-1,0-.1,.1-.2,.2-.3,.4-.5,.9-.9,1.4-1.1,.1,0,.2,0,.4,0,.5,0,1,0,1.5,0,.2,0,.4,0,.5,0,.4,0,.8-.2,1.2-.1Z"/>
  <path class="cls-144" d="M165.1,44.5c-1.8-1.4-3.4-2.9-5.3-4.1-.3-.2-.7-.3-.4-.8,.2-.4,.6-.3,.9-.3,.9,.1,1.8,.3,2.6,.4,3.8,.3,7.5,0,11-1.7,1.2-.6,2.2-1.3,3.1-2.4,1.8-2.3,1.9-4.9,.3-7.3-.3-.5-.7-1-1-1.5,.5-1.3,1.3-2.1,2.7-2.3,.4,0,.7,.3,.9,.7,1.3,2,2.5,4,2.8,6.4,.3,2.4-.7,4.5-1.9,6.4-2.6,4-6.4,6.1-11.1,6.5-1.5,.1-3,.6-4.5,0Z"/>
  <path class="cls-39" d="M159.2,29.1c1,5,.6,9.6-3.9,13-.2,.5-.6,.4-1,.6-1.2,.5-2.4,1-3.7,1.2-2.3,.3-4.4,1.3-6.3,2.6-3.1,2-6.3,2.4-9.6,.5-2.6-1.6-5.4-2.7-8.4-3.4-5.5-1.3-8.3-5.7-7.8-11.7,0-.9,0-1.8,.4-2.6,.3,.2,.3,.6,.4,.9,.2,2.6,1,5,2.3,7.3,.3,.5,.7,1,1.1,1.4,.4,.4,1,.6,1.4,1,.8,.5,1.7,.9,2.6,1.1,2.9,.6,5.5,2,7.9,3.7,2.8,2,5.6,2.2,8.4,.3,2.8-1.9,5.8-3.4,9.2-4.2,.7-.2,1.3-.4,1.8-.8,.5-.5,1.2-.7,1.7-1.3,.4-.3,.6-.7,.9-1.1,1.4-2.2,2.1-4.6,2.3-7.1,0-.4,0-.9,.4-1.2Z"/>
  <path class="cls-90" d="M130,17.2c0,1.3,.5,2.4,1,3.5,.6,1.4,1.2,2.9,1.3,4.5,0,1.3,0,2.5,0,3.8h.1c0,2.2-.2,4.4-.5,6.6-.1,.7-.3,1.3-1.1,1.6-.2,0-.4,0-.5-.1-1.4-1.4-3.2-1.7-5-2-1-.4-2.1-.6-2.7-1.6-.1-.7,.3-.9,.9-.9,.4,0,.8,.2,1.2,.4,1.8,.7,3.3,.2,4.7-1.1,1.4-1.3,1.9-3,1.5-4.9-.2-1.1-1.2-1.8-2-2.6-.3-.4-.6-.5-1.1-.6-4.4-.6-6.7,1.9-5.9,6.6,0,.5,.1,.9,.5,1.2,0,0,.1,.2,.2,.3,0,.4-.1,.7-.6,.7-.2,0-.3-.1-.5-.3-.3-.4-.3-1-.9-1.2-.5-.6-.5-1.4-.7-2.1,0-.2,0-.4,0-.6,0-2.5,.8-4.8,2.6-6.7,1.1-1.1,1.1-2.8,1.7-4.2,1.5-1.9,3.3-3.4,5.5-4.3,0,0,.1,0,.2,0,.1,1.2,0,2.5,0,3.8Z"/>
  <path class="cls-90" d="M148.2,13.4c0,0,0-.1,0-.2,2.2,1.1,4.3,2.6,5.9,4.6,.3,2,.9,3.8,2.4,5.4,.9,.9,1.3,2.1,1.5,3.3,0,.2,0,.4,0,.6-.2,.9,0,1.9-.1,2.8,0,.8-.6,1.4-1,2-.2,.3-.5,.7-.9,.4-.4-.2,0-.6,0-.9,0-.1,0-.3,0-.4,0-.3,.2-.5,.3-.7,.7-1.2,.7-2.8-.1-3.3-.3-.2-.5-.5-.6-.8-.4-1.3-1.3-2-2.5-2.4-1.5-.2-3-.3-4.3,.8-2.3,2-2.2,5.1,.3,7.5,1.6,1.5,3.3,1.2,5.1,.7,.3,0,.7,0,.8,.4,0,.3-.3,.5-.5,.7-1.1,.8-2.4,.9-3.7,1.3,0,0,0,0-.1,.1,0,0-.2,.1-.3,.2-.3,.1-.5,.2-.8,.4-.9,.4-1.3,1.5-2.5,1.2-1.1-.8-.7-2-.8-3-.1-.9-.3-1.9-.3-2.8,.1-.5,.1-1-.1-1.4-.1-.3-.1-.6,0-1,0-1.2,0-2.5,0-3.7,.2-1.6,.5-3.2,1.4-4.6,.2-.4,.4-.7,.7-1.1,.4-.4,.4-.9,.4-1.5,0-.5,0-1.1,.1-1.6-.1-1-.1-2,0-3Z"/>
  <path class="cls-90" d="M144.4,11.8c-.4,2.8-1.6,5.4-2.1,8.2-.3,1.7-1,3.2-2.1,4.4-.7,.8-1.5,.9-2.3,0-1-1-1.7-2.2-2-3.6-.4-2-1-4-1.6-6-.3-1-.5-2-.4-3,2.9-1,5.8-1,8.8-.4,.6,.1,1.2,0,1.7,.4Z"/>
  <path class="cls-22" d="M165.1,44.5c3.2,0,6.5-.1,9.4-1.5,4.4-2.1,7.3-5.5,7.8-10.4,.2-2-.8-4-1.9-5.7-.5-.7-.6-1.7-1.6-2,0-.2,.1-.4,.3-.4,.6-.1,1.3-.2,1.9,0,6,6,3.3,16.9-4.9,19.8-3,1.1-6,1.3-9.1,1.2-.8,0-1.5-.2-2-.9Z"/>
  <path class="cls-90" d="M152.5,14.5c-.6-.4-1.2-1-1.9-1.3-1.2-.5-1.4-1.3-1.1-2.5,.9-4,6.5-8.7,10.6-8.9,.3,0,.6,0,.9,.2,1.1,.7,1.4,1.7,.8,3.4,0,.3-.9,.1-.3,.6,.3,.9,0,1.5-.7,2.1,0,0-.1,0-.2,0,0,.2,.2,0,.3,.2,.1,.7-.4,.6-.8,.6-.9-.3-.6-1.2-.9-1.9,0-.1-.2-.3-.2-.5,0,0,0-.2,0-.2,0-.2,0-.3-.2-.4,0,.1,.1,.3,0,.4-.3,.2-.5,.2-.8,.2-.5,0-.9,.3-1.4,.6-.4,.3-.9,.5-1.3,.9-1.3,1.6-2,3.4-2.3,5.4,0,.4,0,.8-.4,1Z"/>
  <path class="cls-55" d="M104.1,60.3c-.2-1.9,.6-3.5,1.3-5.1,1.8-2.3,4.2-3.6,7.1-4.1,.7,.1,1.5-.1,2.2,0,.4,0,.8,0,.9,.5,.2,.4-.1,.7-.4,1-.3,.3-.6,.7-.9,.8-1.1,.4-1.2,1.1-.7,2-.2,1.8-.4,3.6-.5,5.4-.1,0-.2,0-.4,0-.4-1.2-.3-2.3-.2-3.5,0-.7,.4-1.4-.2-2-.9-.5-1.1,.1-1.3,.7-.2,.5,0,.9,0,1.4-.5,1.4-1.2,2.8-1.9,4.1-.2,.4-.5,.8-1.1,.7-.3-.4-.5-.8-.4-1.3,.1-.6,.2-1.2,0-1.8,0-.3,0-.5,0-.8-.2-.6,.2-1.1,.3-1.7-.8,.5-.7,1.6-1.4,2.1,0,0-.1,0-.2,.1-.4,.5-.6,1.1-1.1,1.5-.4,.3-.8,.7-1.2,0Z"/>
  <path class="cls-90" d="M117.1,1.9c.9-.3,1.9,0,2.7,.2,4.3,1.7,7.6,4.3,8.9,9,.2,.9,0,1.3-.7,1.7-.7,.4-1.4,.9-2.1,1.3-.5-.2-.5-.7-.6-1.2-.4-1.9-1.1-3.6-2.3-5-.4-.4-.9-.7-1.2-1.1-.2-.2-.4-.4-.5-.7,0-.3,0-.6-.4-.7,.2,.2,.2,.4,0,.5-.3,.2-.6,.2-1,.1-.9-.2-1.2,.4-1.3,1.1,0,.2,0,.5,0,.8,0,.2-.2,.4-.4,.4-.3,0-.4-.2-.5-.5,0-.5,0-1.1-.2-1.6,0,.4,.4,.9-.3,1.1-1.5-1.7-1.5-4.5,0-5.7Z"/>
  <path class="cls-90" d="M168.4,49.6c.1,.3,.5,.5,.4,1-4.2-1.5-8.2-1.8-11.1,2.5-1,.4-1.6-.2-2.1-.9-.2-.3-.3-.6-.4-.9-.3-1.5-1-2.7-2.2-3.7-.1-.7-.2-1.4,.8-1.4,.9,.2,1.6,.8,2.4,1.1,3.4,1.5,5.4,1.2,8.1-1.6,1.6,1.1,2.8,2.5,4.1,3.9Z"/>
  <path class="cls-144" d="M116.4,43.5c.1-.1,.2-.2,.4-.3,.9-.6,1.7-1.4,2.6-1.8,1.2-.4,1.6,1,2.5,1.5,1.4,.9,3,1.4,4.5,2-.7,1.4-2.2,1.9-3.4,2.6-.3,.1-.5,.2-.8,.2-1.4,0-2.9,.2-4.3-.3-1.9-.7-2.5-2.3-1.4-4Z"/>
  <path class="cls-3" d="M163,7.6c0,.6-.1,1.1-.3,1.6-.9,2.3-.8,4.5-.3,6.9,.5,2.2,0,4.2-1.8,5.8-1.7,1.4-1.9,1.4-2.7-.7,2.3-1.8,2.2-4.3,2-6.8-.1-1.6-.6-3.2,0-4.8,1.1-.6,1.3-2,2.2-2.7,.3-.2,.6-.7,1-.1,0,.3,0,.6-.1,.9Z"/>
  <path class="cls-168" d="M117.1,1.9c-1.5,1.9-.6,3.8,.3,5.6,1.3,1.9,1.3,4.1,1,6.3-.2,1.2-.1,2.4-.1,3.6,0,.1,0,.3,0,.4,0,.1,0,.3-.2,.3-1.1,.4-1.1,1.3-1,2.2-.3,.1-.5,0-.7-.1-1.2-1.7-.7-3.5-.4-5.3,.3-1.9,.3-3.8-.4-5.6-.5-1.5-.7-2.9-.7-4.5,0-1.7,.7-2.5,2.3-3Z"/>
  <path class="cls-39" d="M147.9,47.8c-1.3,.7-2.5,1.7-3.9,2.3-5.1,2-9.6,1.1-13.7-2.4,.7-1.1,1.4-1.3,2.5-.5,4,2.7,8.1,2.8,12.2,.2,.7-.4,1.4-1.4,2.4-.4,.2,0,.3,0,.4,.1,.1,.1,.2,.2,.2,.4,0,.1,0,.2-.2,.2Z"/>
  <path class="cls-36" d="M122.2,47.6c1.5-.6,2.8-1.6,4.1-2.6,.2,0,.3,0,.5,0,.4,.1,.8,.3,1.2,.5,.4,.2,.8,.3,.5,.9-.6,.3-1.1,0-1.5,0,.5,.3,1.3,0,1.9,.4,0,.7-.5,.6-.9,.6-.5,0-1.1,.2-1.6,.3-1.6,.3-2.7,1.2-3.1,2.9-.2,.9-.5,1.8-1.3,2.4-.5,.3-.9,.7-1.5,.2-.6-.8-1-1.7-2.1-2-.2,0-.4-.3-.5-.5-.2-.9-1-.9-1.7-.9-.6,0-.8-.3-1-.8-.2-.5,0-.8,.4-1,.3,0,.5,0,.7,.2,.5,.6,1.1,.7,1.7,.3,.2,0,.5,0,.7,0,.2,0,0,.5,.3,.3,.7-.4,1.5-.4,2.2-.9,.3-.3,.8-.1,1.1-.4Z"/>
  <path class="cls-34" d="M156.1,47.6c-.9,0-1.4-.8-2.3-1-.1,0-.1-.2,0-.3,.2-.3,.3-.6,.6-.8,1.2-.8,2.1-1.8,2.7-3,1.3-1.4,1.3-1.4,2.9-.3,.6,.5,1.2,1,1.8,1.5,1,1.4,.7,2.8-.9,3.7-1.5,.9-3.1,.7-4.8,.3Z"/>
  <path class="cls-21" d="M174.2,24.9c-.2-.2-.5-.4-.7-.6-1.1-1.5-2.1-3-1.9-5,.2-1.5,.7-2.7,2.1-3.4,.9-.4,1.6,0,2.2,.7,.4,.6,.7,1.2,1,1.9,.3,.8,.3,1.7,1.1,2.2,.2,0,0,.4,0,.6,0,.1-.1,.2-.2,.3-.5,.2-.8-.3-1.2-.3-.4,.2-.1,.4-.1,.7-.1,.6-.6,.9-1.2,1-1.4-.6-1.4-2.1-1.9-3.4-.2,1.6,.5,2.8,1.3,4,0,.5,0,.9-.4,1.3Z"/>
  <path class="cls-93" d="M157.6,26.9c0-.2,0-.3,0-.5,0-.7-.5-1.5,.2-2.1,.6,1.4,1.1,2.8,1.3,4.3-.1,.6-.2,1.2,0,1.8-.4,2.5-.8,5-2.5,7.1,0,0,0,0-.1,0-.3-.4-.1-.9-.5-1.3-.7-.6-1.6-.7-2.5-.5-.5,.1-1,.2-1.5,.1-.3,0-.5-.1-.6-.4,.2-.5,.8-.5,1.2-.8,1.9-.8,3.6-2,4.6-3.8,.2-.3,.3-.6,.2-.9,.3-1-.2-1.9,0-2.9Z"/>
  <path class="cls-42" d="M152.5,14.5c.2-2.5,.7-4.8,2.6-6.6,.2,.1,.2,.3,.2,.5-.2,1-.6,1.9-.6,3,0,.4,0,.8-.3,1-.8,.8-.7,1.1,.3,1.7,.2,0,.4,.2,.6,.4,.5,.4,.9,.4,1.3-.1,.4-.5,.7-1,1.1-1.4,.3-.3,.6-.8,1.1-.1,.4,1.3,.6,2.7,.1,4.1-.2,.3-.4,.6-.7,.7-.6,.2-.2,.6-.3,.9-.2,.5-.3,1.1-1.1,.7-1.1-1.8-2.6-3.4-4.2-4.8Z"/>
  <path class="cls-18" d="M117.9,17.7c-.2-1.8,0-3.5,.2-5.3,.2-1.7-.3-3.3-.8-4.9,0,0,0-.2,0-.3,0-.6-.7-1.5,0-1.6,.6,0,.2,1,.4,1.6,.1,.3,0,.7,.2,1,.4-.7,0-1.5,.5-2.2,.7-.8,1.5,.1,2.1-.3,.2-.6-.7-.3-.6-.8,0,0,.2-.2,.3-.1,.4,.1,.8,.3,1.2,.5,.4,.1,.6,.1,.1,.5-.4,.4,.5,.4,.3,.8-.4,.2-.8,0-1.2-.1-1.3-.3-1.7,.1-1.7,1.4,0,1,.4,1.8,.7,2.7,.2,.5,.3,1,.4,1.6,0,1.4-.4,2.8-.2,4.2,.1,.6,.4,1.1,.7,1.6,.2,.4,.6,.6,.8,1-.4,.6-.8,1.2-1.2,1.8-.7,.3-1.1,0-1.5-.6,0-.1,0-.2,0-.4,.2-.9,0-1.8-.8-2.4Z"/>
  <path class="cls-93" d="M122.8,33.3c.7,.8,1.7,1,2.6,1.5,.1,.3,.6,.5,.1,.9-.8,.3-1.6-.2-2.3,0-.4,.1-.9,.2-1.2,.6-.3,.4-.1,.9-.6,1.2-1.2-1.2-1.4-2.7-1.9-4.2-.3-1-.7-2.1-.6-3.2,.2-.4,.2-.8,0-1.3,0-.6,.2-1.2,.4-1.8,.5-.3,.2-1,.7-1.3,.5,.4,.1,.9,.3,1.4,0,.2,0,.4-.1,.5-.2,.4-.3,.9-.2,1.3,0,0,.2,0,.3,0,.3,.7,.2,1.5,.7,2.1,.4,.2,.5,.7,.7,1.1,0,0,.1,.2,.2,.2,.4,.1,.7,.3,.8,.7Z"/>
  <path class="cls-51" d="M177.8,21.6c0-.3,.1-.6-.4-.8-.6-.3-.7-1.3-.8-2-.4-1.8-1.4-2.6-2.8-2.8,1.8-1.1,3.6-.7,4.3,1.3,.9,2.4,1.7,4.9,3,7.2-.6,.3-1.3,.2-2,.2-1.1-.5-1.2-1.5-1.4-2.5,0,0,0-.2,0-.2-.1-.1,.6-.1,0-.3Z"/>
  <path class="cls-7" d="M156.7,19.3c.7,.2,.6-.5,.9-.8,.2-.5,.6-1,.8-1.5,.6-1.5,0-2.9-.1-4.3,0,0-.1-.2-.2-.3,0-.9,.3-1.7,.7-2.4,.5,0,.7-.7,1.2-.6,0,0,0,0,.1,0-.4,1.3-.3,2.6,0,4,.4,2.1,.3,4.1-.4,6.2-.3,.9-.9,1.4-1.8,1.6-.4-.6-.8-1.2-1.2-1.8Z"/>
  <path class="cls-158" d="M120.5,53.2c1.2-.1,2-.8,2.3-2,.6-3.3,2.2-3.8,5.1-4.1,.3,0,.7,0,.9-.2,.6-.5,1.2-.5,1.8,0-.2,.4-.6,.8-1,1-.2,.4-.7,.4-1,.7-.2,0-.3,0-.5,0-.6-.3-1.2-.3-1.8,0h-.1c0,0-.1,0-.1,0-.6,.1-1.1,.4-1.2,1.1,0,0,0,.1-.1,.2-.3,.2-.4,.5-.4,.8,0,.3,0,.5,0,.8-.1,.4,0,.8-.3,1.2-.1,.5-.6,.8-.9,1h0c-.2,.2-.4,.4-.6,.5-.6,.1-1.3,.5-1.7-.3,0-.2-.1-.5-.2-.7Z"/>
  <path class="cls-58" d="M120.4,18.5c-.4-.5-.8-.9-.8-1.5,.2-1,1.1-1.5,1.7-2.1,.2,0,.5,0,.7,0,1.2-.2,1.3-1.2,1.4-2.2,.1-1.2-.2-2.3-.5-3.4-.1-.5-.4-.9,0-1.4,1.6,1.4,2.1,3.2,2.5,5.2,0,.4,0,.8,.3,1.2,0,0-.2,.1-.2,.2-.2,0-.8-.2-.5,.4-.4,.5-.7,1-1.3,1.3-.6,0,0-.4-.2-.6-.2,.3-.7,.1-.8,.6-.1,.5-.6,.6-1,.8-.5,.3-1.1,.5-.9,1.3,0,.1-.2,.3-.4,.2Z"/>
  <path class="cls-117" d="M118.7,48.6c-.3,0-.5,0-.8,0-.6,.3-1.2,0-1.8-.3-.1-.2-.3-.2-.5-.2-1.3-.4-1.9-1.1-1.8-2.3,.8-.9,1.6-1.6,2.6-2.2-.6,2.7,.5,4,3.3,4,.8,0,1.7,0,2.5,0-.3,.2-.7,.3-1,.5-.8,.4-1.6,.8-2.6,.5Z"/>
  <path class="cls-117" d="M156.1,47.6c.9,0,1.9,0,2.8,0,2.4-.1,3.5-1.6,2.9-3.9,.9,.6,1.8,1.3,2.5,2.1-.4,1.6-1.6,2.4-3.1,2.6-1.8,.3-3.5,.1-5-.8Z"/>
  <path class="cls-7" d="M113.8,45.7c.2,1.1,1.1,1.7,1.8,2.3-.6,.4-.1,.8,0,1.1,.2,.5,.6,.4,.9,.3,1-.3,1.5,.1,1.6,1.1-.4,.2-.7,0-1-.3-2.1-1.2-4.2-.7-6.3-.1-.4,.1-.9,.3-1.4,.2,1.3-1.7,2.8-3.3,4.4-4.7Z"/>
  <path class="cls-8" d="M120.2,27.4v-1.4c-.4,.4-.2,1.1-.8,1.1,.9-3.5,2.3-6.8,4.9-9.4,0,1.9-.5,3.6-1.7,4.9-1.4,1.5-2,3.3-2.1,5.3,0,.3-.1,.6-.2,.9-.4-.4-.3-.9,0-1.3Z"/>
  <path class="cls-100" d="M157.9,24.4c-.3,.7,0,1.4-.2,2.1-.4-1.5-1.2-2.7-2.1-3.9-1.1-1.3-1.9-2.9-1.5-4.7,1.7,2,3,4.1,3.8,6.6Z"/>
  <path class="cls-11" d="M113.3,55.5c0-.3-.3-.7-.2-.8,.1-.4-.7-1.3,.7-1.3,.7,0,1.3-.9,1.7-1.5,.3-.4-.3-.5-.6-.5-.8-.1-1.6,.2-2.3-.2,1.3-.5,2.5-.2,3.8,0,.7,.1,1.4,.3,1.6,1-.1,.5-.7,.4-1,.7-.7,.7-1.8,1.1-1.7,2.4,0,.6-.4,1.1-1,.4-.3-.4-.7-.2-1-.3Z"/>
  <path class="cls-167" d="M177.8,22.1c.4,.9,.6,1.8,1.3,2.6,0,0-.2,.2-.3,.2-1.2,.2-1.8,1.3-2.6,2.1-.5-.4-1-.8-1.5-1.3,0-.2-.1-.3-.2-.5,1-.7,2.1-1.4,2.8-2.5,.2-.2,.3-.4,.5-.6Z"/>
  <path class="cls-162" d="M120.4,18.5c.7-.6-.6-.8-.2-1.5,.3-.2,.4,.5,.7,.3,.3-.1-1-1.3,.4-.6,.5,.2,.8-.3,.9-.5,.4-.8,1.1-.8,1.7-1.2,.4,.6-.6,.6-.3,1.1-.8,1-1.5,2-2.3,3.1-.5,0-.7-.4-1-.7Z"/>
  <path class="cls-80" d="M118.9,20.3c.3,.5,.8,.7,1.3,.8-.8,2.1-1,2.2-2.7,.7-.5-.4-1-.8-1.2-1.5,.3,0,.5,0,.8,0,0,0,.2-.1,.3-.1,.5,.1,1-.2,1.5,.1Z"/>
  <path class="cls-118" d="M157.1,42.4c.3,.2,.6,.3,.2,.7-.7,.8-2,1.2-2.1,2.6,0,.5-.5-.3-.9-.3-.4,.2-.6-.2-.9-.4-.1-.2-.3-.4-.1-.6,.5-.3,1-.5,1.5-.8,.4-.5,.9-.8,1.5-1l.7-.3Z"/>
  <path class="cls-71" d="M161.5,5.5c.4-1.3,.5-2.5-.5-3.6,1.5,.3,2.2,1.2,2.3,2.7,0,.5,0,.9,0,1.4-.6,.2-1.2,0-1.8-.2,0-.1,0-.2,0-.3Z"/>
  <path class="cls-72" d="M161.5,5.7c0,0,1.5,.2,1.8,.3,0,0,0,.2,0,.3,0,.1-.1,.2-.2,.3-.8,.5-1.7,1-1.7,2.1,0,.7-1,0-1.1,.7,0,0,0,0,0,0-.2-.2-.2-.3,0-.5,0-.3,.6,0,.5-.5,0,0-.1-.1,0-.2,0,0,0,0,0,0,.4-.6,.7-1.3,.8-2,0,0,0-.1,0-.2,0,0,0,0,0,0Z"/>
  <path class="cls-57" d="M150.5,45.3c.6-.2,1.2-.3,1.8-.5,.2,.2,.5,.4,.6,.8,0,.1,0,.2,0,.3-.3,.4-.6,.6-1.1,.7-.7-.2-1.4,.2-2-.3-.3-.7,.4-.8,.7-1.1Z"/>
  <path class="cls-125" d="M117.9,52.2c-.4-.5-1-.7-1.6-1,.3-.2,.6-.4,.8-.8,.3,0,.7,.2,1,.3,0,.2,.2,.3,.3,.5-.4,.3,0,.8-.3,1.1,0,0-.2,0-.3,0Z"/>
  <path class="cls-116" d="M149.8,46.3c.6,.2,1.4-.3,2,.3,0,.1-.2,.2-.3,.2-.7,.1-1.4,.2-2.2,.4-.5,0-1.1,0-1.6,.3,0-.1-.2-.2-.3-.3,0-.4-.1-.8,.3-1.1,.7,.1,1.4-.4,2,.2Z"/>
  <path class="cls-94" d="M128.6,46.3c-.4-.7-1.3-.7-1.8-1.2,1.2,0,2.4,.4,3.5,1-.3,.8-.9,.4-1.4,.5-.1,0-.3-.1-.3-.2Z"/>
  <path class="cls-12" d="M156.4,42.8c-.4,.5-1,.8-1.5,1,0-.4-.2-.7-.5-1,.3-.2,.7-.4,1-.6,.2,.3,.2,.6,.7,.3,.7-.5,.2,.3,.4,.4Z"/>
  <path class="cls-95" d="M149.8,46.3c-.7,0-1.4,.3-2-.2,.9-.4,1.8-.9,2.8-.8-.3,.3-.5,.7-.8,1Z"/>
  <path class="cls-69" d="M128.6,46.3c0,0,.2,0,.3,0,.6,.3,1.4-.1,2,.2,0,0-.2,.2-.2,.2-.6,0-1.2,0-1.8,0-.7,0-1.4-.2-2-.3,0,0,0-.2,0-.3h1.8Z"/>
  <path class="cls-64" d="M125,14.9c0-.3-.8,0-.5-.6,0-.2,.2-.4,.4-.5,.6-.2,.3,.6,.7,.6-.1,.2-.3,.4-.5,.4Z"/>
  <path class="cls-34" d="M152.8,45.5c-.3-.1-.5-.4-.5-.7,.3,0,.7-.2,1-.3,0,.2,.2,.3,.3,.5-.2,.3-.4,.5-.8,.5Z"/>
  <path class="cls-142" d="M130.9,46.5c-.7-.1-1.4,.2-2-.2,.5-.1,1.1,.2,1.5-.3,.3,0,.5,.2,.5,.5Z"/>
  <path class="cls-2" d="M159.2,30.5c-.4-.6-.4-1.2,0-1.8,0,.1,0,.3,0,.4,0,.5,0,.9,0,1.4Z"/>
  <path class="cls-106" d="M128.6,48.5c0-.6,.7-.5,1-.7,0,0,0,.2,0,.3-.3,.3-.6,.4-1,.4Z"/>
  <path class="cls-71" d="M163,6.5c0,0,.2-.2,.2-.3,0,.4,.1,.9-.2,1.3,0-.4,0-.7,0-1.1Z"/>
  <path class="cls-9" d="M118.9,29c.3,.4,.4,.8,0,1.3,0-.3,0-.7,0-1,0,0,0-.2,0-.2Z"/>
  <path class="cls-120" d="M166.6,57c-.4-.6-.6-1.3-1.5-2,.5,2.1,.9,3.9,.3,5.8-.2-.3-.2-.5,0-.8-.3,.2,0,.6-.2,.8-.7,0-1-.5-1.3-1-.6-1-1-2-1.2-3.1-.3-.5,0-1.3-.6-1.8-.2,.3-.3,.5-.4,.8-.5,1-1.4,1-2.3,.7-.8-.2-1-.8-.8-1.6,.6-2.2,2.2-3.4,4.3-3.8,4.6-1,10.2,2.5,11.2,7.2,.2,.7,.3,1.4,.2,2.1,0,.5,0,1.3-.6,1.4-.5,.1-.7-.6-1-1-.3-.5-.5-1-.8-1.5-.5-.2-.5-.7-.7-1.1-.2-.7-.5-1.3-1.1-1.9,.3,.9,.8,1.6,.7,2.5-.1,.4-.1,.8-.3,1.2-.6-.2-.8,.9-1.5,.6-.1,0-.2-.1-.3-.2-.7-1.1-1.1-2.3-2-3.3Z"/>
  <path class="cls-39" d="M122.5,53.9c.2,0,.3-.1,.5-.2,.7,1.9,1.5,2.5,3.2,1.6,3-1.6,5.9-1.5,9-.8,3.2,.8,6.5,.4,9.6-.4,2.2-.6,4.2-.1,6.1,.9,.3,.1,.5,.3,.8,.4,1.7,.6,2.6,.2,3.3-1.5,.3-.3,.6,0,.9,0,.4,.2,1,.2,1.2,.8-.3,.5-.5,.9-1,1.2-1.2,.4-2.2,1.3-3.6,1.3-.4,0-.8-.1-1.1-.3-2.5-1.5-5.1-1.5-7.7-.8-3.1,.8-6.2,.8-9.3,0-2.6-.7-5.2-.6-7.6,.8-2.3,1.3-4,0-5.6-1.7-.2-.4-.3-.7,.2-.9,.4-.1,.7-.2,1-.4Z"/>
  <path class="cls-81" d="M117.9,52.2c0,0,.2,0,.3,0,.9,1,1.8,2,1.8,3.5-1.2,1.2-2.6,1.1-3.3-.3-.1-.2-.3-.4-.4-.4-.3,.2-.3,.6-.4,.9-.3,1.5-.7,3-1.7,4.3-.3,.3-.5,.9-1.1,.6,.2-.3,.2-.6,0-1-.4-1.1-.6-2.2,.3-3.2,.4-.4-.1-.8,0-1.2,.9-1.5,1,0,1.6,.5,.4-.8,.3-1.5,.1-2.3,1.3,.3,1.7-1.4,2.9-1.4Z"/>
  <path class="cls-88" d="M120.6,60.8c-.2,0-.2,.3-.2,.5-.1,.5,0,1-.7,1.1-.4,0-.6,0-.8-.4-.5-1.3,.5-2.6,1.3-3.6,1.3-1.6,2.1-.4,3.2,0,.3,0,.6,.2,.8,.3,.4,.2,1.1-.2,1.2,.5,0,1,.3,2.1-.7,2.8-1.1-.1-.6-1.1-.9-1.7-.3,0-.4,.4-.6,.5-.5,.3-.6,.8-.9,1.2-.2,.4-.4,.8-1,.7-.6-.8,.3-1.5,0-2.3-.4,0-.4,.5-.8,.5Z"/>
  <path class="cls-152" d="M154.4,61.6c-.1,.3-.2,.5-.3,.8-1-.4-1.9-2.6-1.3-3.4,.3-.5,.9-.2,1.4-.2,.9-.5,1.7-1,2.6-1.5,.4,.7,.7,1.5,1.7,1.6,.3,0,.5,.5,.4,.9,.2,.6,.3,1.1,.1,1.7-.6,.6-.9,0-1.2-.4-.3-.4-.6-.8-.9-1.3-.3,.4,0,.7,0,1-.2,.6,.2,1.1,0,1.7-.6,.4-.7-.2-.9-.5-.3-.4-.4-.9-.8-1.2,0,0-.2-.2-.2-.3-.7,0-.1,.7-.4,1Z"/>
  <path class="cls-158" d="M153.1,47.6c1.2,.6,1.9,1.6,2.2,3,.2,1.3,.8,2.5,2.4,2.6-.2,.3-.3,.7-.5,1-.4,.3-.8,0-1.1,0-.4-.1-.7-.4-1.1-.4-.2-.2-.4-.4-.6-.5-.3-.7-.4-1.4-.6-2,.1-.7,0-1.3-.7-1.7l-.3-.3c-.3-.5-.8-.5-1.3-.7,.2-.4-.3-.8,.1-1.2,.6-.2,1,0,1.4,.4Z"/>
  <path class="cls-76" d="M108.2,62.1c.6-.3,.8-.9,1.1-1.4,.6-1.2,1.1-2.3,1.7-3.4,0-.2,0-.3,.2-.5,.2-.1,.4-.2,.7,0,0,.2,0,.3-.1,.5-.6,1.7-1,3.5-2,5-.2,.4-.4,.8-.9,.8-.5,0-.6-.5-.7-.9Z"/>
  <path class="cls-151" d="M113.1,60.8c1.5-1,1.8-2.7,2.5-4.2,.1-.2,0-.5,.3-.7-.1,1.7-.4,3.4-.9,5-.2,.6-.4,1.4-1.1,1.4-.9,0-.9-.9-1-1.5,0,0,.2,0,.2,0Z"/>
  <path class="cls-151" d="M162.5,56.7c.9,1.3,1.1,3.1,2.5,4.1,.1,0,.2,.1,.2,.2,0,.3-.2,.7-.2,1-.8,.6-1.2,.2-1.6-.5-.7-1.5-.9-3.1-1-4.8Z"/>
  <path class="cls-137" d="M124.5,61.8c1-.7,.4-1.9,.7-2.8,.1-.3-.7-.1-.9-.5,.7,0,1.3,0,2.1,0-.3,1.1-.6,2.3-.9,3.4-.1,.5-.2,1.1-.9,1.1-.5,0-.6-.5-.8-.9,.2-.2,.4-.2,.7-.2Z"/>
  <path class="cls-137" d="M154.2,58.7c-1-.1-1.2,.3-1.1,1.3,.1,.9,.1,1.8,1,2.3,0,.4-.3,.7-.7,.7-.4,0-.5-.4-.6-.7-.3-1.2-.7-2.4-1-3.8,.9,.2,1.7-.2,2.4,.2Z"/>
  <path class="cls-143" d="M116.6,55.5c1,1.2,2.2,.8,3.3,.3,.3,1.4,.2,1.6-1.1,1.6,0,0-.2,0-.3,0q-1.7,0-1.9-1.8Z"/>
  <path class="cls-6" d="M158.4,54.9c.3,1.6,1.5,1.9,3.1,.8,0,.5,.3,1.4-.4,1.5-.9,.2-2,.4-2.7-.1-.6-.5-.3-1.5,0-2.2Z"/>
  <path class="cls-132" d="M170.4,58.8c0-1.1-.6-2-.9-3.2,1.7,.8,1.8,2.3,2.2,3.7-.4,.1-.7,.5-1,.8-.3-.4-.4-.8-.3-1.3Z"/>
  <path class="cls-65" d="M106.6,58.7c.2-1.2,.8-2.3,2-3.1-.1,1.1-.6,1.9-.9,2.7,0,.1-.2,.2-.3,.4-.1,.3,.1,.8-.3,.8-.6,0-.2-.6-.5-.8Z"/>
  <path class="cls-85" d="M104.1,60.3c.7,.4,1,0,1.3-.5,.3-.4,.5-.9,1-1,.1,1-.5,1.6-.9,2.4-.2,.3-.4,.7-.8,.7-.4,0-.4-.6-.5-.9,0-.2,0-.4,0-.6Z"/>
  <path class="cls-44" d="M111.3,57c0,0-.2,.2-.3,.3-.6-1.1-.3-2.1,.7-2.6,.7-.3,.6,.3,.8,.6,.2,.4,0,.6-.3,.7,0,0-.2,.2-.3,.3-.4,.1-.6,.4-.7,.8Z"/>
  <path class="cls-70" d="M168.9,60.3c1.1,.2-.2-.9,.2-.9,.8-.1,.8,.5,1.1,.6,.4,.3,0,.7,.3,1,0,.4-.1,.7-.3,1-.2,.2-.3,.2-.5,0-.5-.5-1-1-.7-1.9Z"/>
  <path class="cls-113" d="M121.5,62.6c.9-.5,1-1.6,1.8-2.1,.1,.2,.2,.4,0,.5-.3,.7-.6,1.4-1,2-.2,.3-.3,1-1,.6-.3-.5-.5-1-.3-1.5,0-.2,0-.3,0-.5,0-.1,.2-.1,.3,0,.2,.3-.1,.8,.2,1.1Z"/>
  <path class="cls-141" d="M155.1,60.8c.8,.3,.9,1.3,1.6,1.8,.2,0,.3,.1,.5,.2,0,.4-.1,.7-.5,.7-.3,0-.5-.3-.6-.5-.4-.7-.8-1.4-.9-2.2Z"/>
  <path class="cls-112" d="M152.6,57.2c1.2-.4,2.2-1.3,3.6-1.3-1,.8-2.1,1.7-3.6,1.3Z"/>
  <path class="cls-83" d="M124.5,61.8c-.1,.3-.4,.2-.7,.2,0-.3,0-.7,0-1-.4-.5,0-.9,.3-1.3,.6,.6,0,1.4,.5,2Z"/>
  <path class="cls-159" d="M170.4,61.1c-.4-.3-.2-.7-.3-1,0-.4-.1-.9,.2-1.3,.1,.4,.2,.8,.3,1.3l-.3,1Z"/>
  <path class="cls-62" d="M158.9,61.6c0-.6,0-1.2,0-1.8,.7,.6,.5,1.4,.3,2.1-.2,0-.3,0-.3-.3Z"/>
  <path class="cls-66" d="M157.1,62.8c-.2,0-.4,0-.5-.2,0-.6-.2-1.2,.2-1.8,.3,.7,.4,1.3,.2,2Z"/>
  <path class="cls-108" d="M158.9,61.6c0,0,.2,.2,.3,.3,0,.8-.5,.5-.9,.3-.3-.2-.3-.7-.4-1,.4,.1,.6,.5,1.1,.5Z"/>
  <path class="cls-15" d="M122.5,53.9c-.1,.4-.5,.5-.8,.5-.5,0-.6,.3-.5,.8-.4-.3-.4-.8-.5-1.3,.6,.6,1.2,0,1.8,0Z"/>
  <path class="cls-92" d="M169.7,62.1c.1,0,.3,0,.4,0,0,0,0,.1,0,.2-.4,.2-.5,1.2-1.2,.6,0-.5,0-1,.8-.8Z"/>
  <path class="cls-146" d="M112.3,56c0-.2,.2-.5,.3-.7,.2,0,.6-.6,.5,.1,0,.7-.3,1.3-.5,1.9-.2-.4,.2-1-.3-1.3Z"/>
  <path class="cls-49" d="M121.2,61.5c0,0-.1,0-.2,.1,0-.3,0-.7-.4-.8,.2-.3,.2-1,.9-.7,.3,.6-.1,1-.3,1.5Z"/>
  <path class="cls-49" d="M124,59.8c0,.4-.2,.8-.3,1.3-.2,0-.4,0-.6,0,0-.2,0-.3,0-.5,.3-.2,.2-.8,.8-.7Z"/>
  <path class="cls-30" d="M154.4,61.6c0-.6-.1-1.1-.2-1.7,.6,0,.6,.3,.7,.7-.1,.3-.3,.7-.4,1Z"/>
  <path class="cls-10" d="M155.9,53.9c.4,0,.8,.2,1.3,.2,0,.2,0,.4,0,.6-.3-.4-.9-.1-1.3-.5,0-.1,0-.2,0-.3Z"/>
  <path class="cls-55" d="M111.3,57c-.2-.7-.2-1.1,.7-.8,0,0,0,.2,0,.3,0,.1,0,.3-.3,.3-.2,0-.3,.2-.5,.3Z"/>
  <path class="cls-65" d="M107.4,60.2c0,.5,.2,.8-.2,1.1-.4-.4-.1-.7,.2-1.1Z"/>
  <path class="cls-49" d="M119.7,62.3c.4-.3,.4-.8,.7-1.1-.1,.5,.5,1.4-.7,1.1Z"/>
  <path class="cls-49" d="M120.9,62.1c0,.5,.2,1,.3,1.5-.7-.4-.7-.9-.3-1.5Z"/>
  <path class="cls-99" d="M107.7,59c.4,.6,.3,1.2,0,1.8-.2-.6-.2-1.2,0-1.8Z"/>
  <path class="cls-146" d="M111.8,56.7c0,0,.2-.2,.3-.3,.2,.3,.4,.7-.3,.8,0-.2,0-.3,0-.5Z"/>
  <path class="cls-169" d="M166.6,57c1.3,.7,1.6,2,2.1,3.3,.1,.5,0,1-.5,1.3-.8-1.4-1.3-2.9-1.6-4.6Z"/>
  <path class="cls-78" d="M168.1,61.6c.2-.4,.3-.8,.5-1.3,0,0,.2,0,.2,0,.3,.6,.5,1.2,.8,1.8-.6,0-.4,.6-.8,.8-.4-.3-.6-.8-.8-1.3Z"/>
  <path class="cls-130" d="M165.3,61.1c0,0-.1-.2-.2-.2,0-.3,0-.5,0-.8,0,0,.1,0,.2,0,0,.3,0,.5,0,.8,0,0,0,.2,0,.2Z"/>
  <path class="cls-29" d="M177.6,22.8c-.2,.2-.5,.1-.6,.5-.3,1.2-1.5,1.5-2.5,1.8,0,0-.2-.2-.3-.2,0-.4,0-.9,.3-1.3,.2-.3,.4-.6,.7-.8,.4-.3,1-.4,1.1-1,.9-.3,1.2,.2,1.3,1Z"/>
  <path class="cls-81" d="M141.6,28.7c2.5,1.4,3.5,3.6,3.3,6.4,.3,.4,0,.8,0,1.1-.8,1.5-1.5,1.9-2.9,1.8-1.5-1.2-1.4-2.5,.3-3.7,.2-.2,.4-.5,.1-.7-.3-.3-.7-.2-1,0-.8,.6-1.7,.8-2.7,.7-.8,0-1.5-.4-2-1.1,0-1.3,1.1-1.8,1.9-2.5,.4-.4,.9-.6,1.1-1.2,.4-1.1,1.1-1.2,2-.8Z"/>
  <path class="cls-32" d="M133.4,32.5c1.1-2.5,2.7-4.4,5.6-4.8,.3,.1,.4,.4,.2,.6-1.3,1.6-2.6,3.1-4.4,4.2,0,.3,.4,.5,.5,.8,.2,.4,.1,.8,.4,1.1,1.6,1.2,1.8,1.8,.9,3.3-.1,.1-.3,.3-.5,.3-1,.2-1.8-.2-2.4-1-.1-.5-.2-1.1,0-1.6,.3-.6,.2-1.2-.3-1.7-.4-.3-.3-.7-.1-1.1Z"/>
  <path class="cls-149" d="M135.3,33.3c-.5-.3-.9-.7-.8-1.3,0-.2,.1-.4,.2-.4,1.1,1,1.3-.5,1.8-.8,.9-.7,1.6-1.6,2.4-2.3,.2-.2,.4-.5,.2-.8,0,0,0,0,0,0,.7-.4,1.2-.2,1.8,.3,.3,.3,.5,.5,.8,.8-1,0-1.5,.4-1.9,1.4-.4,.9-1.6,1.2-2.3,2-.2,.3-.4,.6-.7,.9-.4,.3-.9,.4-1.4,.2Z"/>
  <path class="cls-56" d="M146,31c.2,1.6,.4,3.2,.6,4.8,0,.5,.2,1,.7,1.3,0,.7-.3,.8-.8,.4-.3-.2-.3-.6-.5-.9-.4,.3-.4,1.1-1.2,.9-.3-.6,.3-1,.3-1.6,0-.2,0-.5,.2-.7v-1.6c.8,.3,.3,1.1,.9,1.6-.3-2.5-.4-4.9-.8-7.3-.2-1,.1-1.8,.2-2.7,.1-1.6,.2-3.3,1.6-4.5-.5,1.5-1.2,3-1.3,4.6,0,1.3,0,2.5,0,3.8,0,.3,0,.6,.1,.8,.3,.4,.2,.8,.1,1.2Z"/>
  <path class="cls-73" d="M130.7,37.1c.7-.4,.8-1.1,.9-1.8,.3-2.1,.5-4.2,.8-6.3,.5,1.1,0,2.1,0,3.2,0,.6-.3,1.3,.8,1.4,.4,.4,.3,.9,.2,1.3,0,.1-.1,.2-.2,.3-.2,.2-.4,.4-.6,.6-.5,.3-.5,1-.9,1.4-.5,.6-1.1,.6-1.4,0,0,0,0,0,0,0,0,0,.1,0,.2,0Z"/>
  <path class="cls-52" d="M133.2,35c0-.5,0-1,0-1.5,0-.3-.1-.8,.3-1,0,.3-.2,.7,.4,1,.8,.4,.8,1.3,.6,1.8-.3,.6-.2,1.1-.3,1.6-.6,0-.8-.6-.9-1.1,0-.2,0-.5,0-.7Z"/>
  <path class="cls-102" d="M140.8,27.9c-.6,0-1.2-.2-1.8-.3,.5-1,1.4-1,2.7,0-.2,.4-.6,.2-.9,.3Z"/>
  <path class="cls-163" d="M132.4,29c-.3-1.3-.3-2.5,0-3.8,.3,1.3,.3,2.5,0,3.8Z"/>
  <path class="cls-147" d="M130,17.2c-.2-1.2-.2-2.5,0-3.8,.3,1.2,.2,2.5,0,3.8Z"/>
  <path class="cls-37" d="M148.2,13.4c.2,1,.1,2,0,3-.3-1-.3-2,0-3Z"/>
  <path class="cls-24" d="M148.1,18c.2,.6,.4,1.1-.4,1.5,.1-.5,.2-1,.4-1.5Z"/>
  <path class="cls-19" d="M145.2,35.1c0,.2,0,.5,0,.7-.1,.2-.2,.4-.4,.2,0-.3,.2-.7,.2-1,0,0,.1,0,.2,0Z"/>
  <path class="cls-91" d="M149.3,48.6c.2,.3,.2,.8,.5,1,.4,.4,.4,.7,0,1.2-.5,.7-1.2,.5-1.8,.4-.5-.1-.8-.4-.6-1,.1-.3,0-.7-.1-1.2,.7,.3,1.1,0,1.3-.7,0,0,.2,0,.3,0,.2,0,.4,.1,.4,.3Z"/>
  <path class="cls-28" d="M151.3,48.5c-.2,0-.3,0-.5,0-.1-.1-.2-.2-.3-.4-.2-.4-.7-.4-.8-.8,0-.2,0-.4,.2-.5,1.2-.4,1.5,.3,1.5,1.2,0,.1,0,.3-.1,.4Z"/>
  <path class="cls-87" d="M150.8,48.1c0,.2,0,.3,0,.5-.5,0-1,0-1.5,0-.2,0-.4,0-.5-.3,0,0,0-.1,0-.2,.3-.4,.8-.3,1.2-.3,.2,0,.5,0,.7,.2Z"/>
  <path class="cls-109" d="M154.1,50.9c0,.7,.2,1.5,.3,2.2-.6-.3-.3-1.1-.7-1.5-.2-.2-.1-.5,0-.8,.2-.1,.4-.1,.5,0Z"/>
  <path class="cls-43" d="M126.3,48.5c.6-.8,1.2-.8,1.8,0-.6,0-1.2,0-1.8,0Z"/>
  <path class="cls-119" d="M154.1,50.9c-.1,0-.3,0-.4,0,0,0-.1,0-.1-.1,0,0,0-.1,0-.1,.1-.5-.3-.8-.4-1.3,.9,.2,.9,.8,.9,1.5Z"/>
  <path class="cls-75" d="M124.9,49.7c0-.9,.4-1.2,1.2-1.1-.4,.4-.8,.7-1.2,1.1Z"/>
  <path class="cls-164" d="M151.3,48.5c0,0,0-.1,0-.2,0-.1,.2-.1,.3,0,.5,0,1.2-.1,1.3,.7-.5-.2-1-.5-1.5-.5Z"/>
  <path class="cls-4" d="M124,51.4c0-.3,0-.6,.2-.8,.1,0,.2,.1,.2,.3,0,.4,0,.8-.2,1.1-.2-.1-.1-.4-.3-.6Z"/>
  <path class="cls-53" d="M123,53.7c.3-.3,.5-.7,.8-1,0,0,.2,0,.2,0,0,.6-.4,1-1,1Z"/>
  <path class="cls-25" d="M155.9,53.9c0,.1,0,.2,0,.3-.3,0-.5-.2-.8-.2,0-.1-.1-.2-.2-.3,.4-.3,.7,0,.9,.2Z"/>
  <path class="cls-97" d="M124,52.7c0,0-.1,0-.2,0,0-.4,.2-.8,.2-1.2,0,.2,.2,.4,.3,.6,0,.3,0,.6-.3,.7Z"/>
  <path class="cls-140" d="M148.7,48.3c0,0-.1,0-.2,0-.2-.2-.4-.3-.6-.5,0,0,0-.1,0-.2,0-.4,.2-.4,.5-.3,.4,.2,.7,.5,.4,1h0Z"/>
  <path class="cls-122" d="M124.5,50.9c0,0-.2-.2-.2-.3,0-.3,0-.7,.5-.7,0,.3-.2,.7-.3,1Z"/>
  <path class="cls-41" d="M153.6,50.6c0,0,0,.2,0,.2,0,.2,0,.5,0,.7-.4-.3-.3-.7,0-1Z"/>
  <path class="cls-26" d="M171,41.5c-.7,0-1.2,0-1.3-.5,0-.5,.5-.5,.8-.6,1.5-.4,3-.9,4.4-1.7,.2,0,.4-.3,.6,0,.3,.3,0,.5-.2,.6-1.2,1.3-2.8,1.9-4.3,2.3Z"/>
  <path class="cls-60" d="M178.6,36.8c0,.3-.2,.6-.6,.5-.3,0-.6-.3-.5-.6,0-.3,.2-.6,.6-.5,.3,0,.5,.3,.5,.6Z"/>
  <path class="cls-93" d="M130.7,37.1c.5,.4,.8,.3,1.1-.5,.2-.4,0-1.1,.9-1,.3,.2,.2,.7,.5,1,0,0,.2,.2,.2,.2,1.5,1.3,2.5,2.8,3.2,4.7,.2,.6,.5,1.1,1.1,1.5,1,.6,2,.7,3-.2,.9-1.1,1.2-2.5,2-3.6,.5-.8,.9-1.8,2.1-1.8,.4,0,.7-.3,.7-.7,0-.3,0-.8,.4-.7,.4,0,.5,.4,.6,.7q.3,.8,.8,.4c.9-.3,1.3-1.2,2.2-1.5,.2-.1,.6,.1,.8-.3h0c.4-.3,.9-.4,1.3,0,.1,.2,.3,.2,.5,.3-.4,.9-1.4,.7-2,1.2-.6,.5-1.4,.9-1,1.9,.4,.7,1.1,.8,1.7,1,.3,.1,.5,0,.8,0,.9,.3,1.9-.5,2.8,.1-.9,.7-1.9,1-3,1.3-2.5,.6-4.8,1.6-6.9,3.1-1.3,.9-2.6,1.6-4.2,2-1.7,.5-3.4,.1-4.7-.8-3.2-2.2-6.7-3.9-10.5-4.9-.5-.1-1-.3-1.3-.7,.5-.5,1.1,0,1.7,0,.6,0,1.3,0,1.9-.2,.5,0,1.1-.2,1.6-.5,.7-.6,.5-1.2-.1-1.8-.6-.5-1.3-.9-2.1-1.1-.4-.1-.9-.2-1.2-.6,0-.2,0-.4-.3-.5-.5-.3,0-.2,0-.3,2,.2,4,.6,5.4,2.3Z"/>
  <path class="cls-115" d="M127.6,39.9c-1.3,.4-2.6,.2-3.8,0-.3-.5-1-.4-1.3-1-.1-.1,0-.3,0-.4,0,0,.2,0,.2,0,1.5,.8,3.2,.8,4.8,1,.1,.1,.1,.2,0,.4Z"/>
  <path class="cls-134" d="M154.4,39.9c-1,0-2,.6-3.1,0,.4-.5,1.1-.2,1.6-.5,1-.2,1.8-.8,2.7-1.2,.2,0,.4,.1,.3,.4-.3,.7-1.1,.8-1.5,1.3Z"/>
  <path class="cls-171" d="M122.5,38.6c0,0,0,.2,0,.3-.5-.3-.9-.7-1-1.3,0-.5,0-1.1,.3-1.5,.2,0,.4,0,.5,.3,0,.8,.4,1.5,.3,2.3Z"/>
  <path class="cls-16" d="M155.9,38.7c0,0-.2-.2-.3-.3-.2-.5,.2-.8,.5-1.1,.3-.1,.4,.1,.6,.3,0,0,0,0,0,0,0,.5-.4,.8-.8,1Z"/>
  <path d="M129.1,24.1c1.8,1.2,2.7,2.8,2.2,5.1-.6,2.3-2,3.8-4.3,4.3-1.2,.3-2.3-.3-3.4-.7-.5-.2-.8-.5-1.1-1h0c-.4-.3-.6-.6-.7-1.1-.6-2.2-.4-4.3,1.3-6,1.4-1.4,3.1-1.7,5-1.1,.3,.3,.7,.4,1,.5Z"/>
  <path class="cls-101" d="M122.5,31.8c.4,.3,.7,.7,1.1,1-.4,0-.7,0-.8,.5-.4-.1-.6-.4-.8-.7,.5,0,.6-.4,.6-.8Z"/>
  <path class="cls-79" d="M120.2,27.4c0,.4,0,.9,0,1.3,0,.1,0,.3,0,.4,0,.2,0,.4-.3,.6-.2-.7-.2-1.4,0-2,0,0,.2-.2,.3-.2Z"/>
  <path class="cls-31" d="M129.1,24.1c-.6,.3-.8-.1-1-.5,.4,0,.8,0,1,.5Z"/>
  <path class="cls-101" d="M121.7,32.3c-.4-.3-.6-.6-.7-1.1,.7,0,.6,.6,.7,1.1Z"/>
  <path class="cls-101" d="M121.7,30.7c.2,.4,.5,.7,.7,1.1-.7,0-.8-.5-.7-1.1Z"/>
  <path d="M154.1,33c-1.9,.6-3.7,.8-5.3-.7-.3-.5-.1-.9,.2-1.2,.3-.3,.5-.7,.6-1.1,0-.1,0-.2,0-.3,0-.3,.4-.7-.2-.8-.3,0-.6-.1-.8-.3-.2-.8,.5-.6,.9-.8,.2,0,.3,0,.5,0,.7,.1,1.2-.1,1.5-.7,.5-.8,0-1.4-.4-2-.5-.4-1.6,0-1.5-.8,.1-.7,1.1-.6,1.7-.6,.6,0,1.2,0,1.8,0,1.8,.3,2.4,1.9,3.1,3.3,.2,.2,.4,.4,.4,.7,0,.7,0,1.4,0,2.1,0,.3,0,.6-.3,.8-.2,.1-.2,.3-.2,.5-.4,1-.9,1.8-2.1,2Z"/>
  <path class="cls-23" d="M149.8,29.7c0,.6,0,1.1-.6,1.5-.4,.2-.5,.6-.5,1.1-2.1-1.7-2.7-4.5-1.5-6.6,1.2-2,3.6-2.9,5.9-2.1-1.1,.6-2.3,0-3.4,.7,.3,.5,.8,.4,1.3,.2,.7-.2,.3,.2,.3,.4,0,0-.2,.1-.3,.2-1.9,.4-2.1,.7-1.4,2.5,0,0,0,.2,0,.2q-.7,.3-.7,.6t1,1.3Z"/>
  <path class="cls-27" d="M154.1,33c.8-.6,1.5-1.2,2.1-2,0,.4,0,.8-.3,1.2,.7-.6,1.3-1.3,1.6-2.2,0-.1,.2-.1,.2,0-.3,2-1.8,3.1-3.4,4.1-.5,.3-1,.5-1.5,.7-.8,.4-1.6,.5-2.5,.3,.3-.5,.8-.5,1.3-.6,1,0,1.9-.6,2.8-1,.1,0,.3-.2,.2-.3-.1-.1-.4-.1-.6-.1Z"/>
  <path class="cls-27" d="M156.4,27.5c-.2-.2-.3-.3-.2-.6,.5-.3,.9,.2,.8,.4-.2,1,0,2.1-.4,3,0,0-.2,0-.4,0,0-.2,0-.5,0-.7,.2-.8,.2-1.5,0-2.3Z"/>
  <path class="cls-107" d="M157.6,30c0,0-.2,0-.2,0,0-1-.2-2,.2-3,.1,1,.5,2,0,3Z"/>
  <path class="cls-67" d="M145.7,28.9c-.2-1.3-.2-2.5,0-3.8,.3,1.3,.3,2.5,0,3.8Z"/>
  <path class="cls-61" d="M150.3,35.1c.8-.1,1.7-.2,2.5-.3-.3,.5-.8,.5-1.3,.5-.4,0-.9,0-1.3,0,0,0,0-.1,0-.2Z"/>
  <path class="cls-135" d="M146,31c0-.4,0-.8-.1-1.2,.5,.4,.4,.8,.1,1.2Z"/>
  <path class="cls-61" d="M150.3,35.3c0,.7-.5,.4-.8,.3,.2-.2,.5-.3,.8-.3Z"/>
  <path class="cls-47" d="M138.8,13.9c-.7,0-1.4,0-2.2,0-.1,0-.4,0-.4-.2-.1-.2,0-.4,.2-.5,.8-.7,3.3-1,4.3-.5,.3,.2,.7,.4,.5,.9-.1,.4-.5,.5-.9,.4-.5,0-1,0-1.5,0,0,0,0,0,0,0Z"/>
  <path class="cls-88" d="M158.4,12.4c0,0,0,.2,0,.3-.7,.6-1.1,1.4-1.7,2.1-.5,.7-1.1,1-1.6,0,.7-1.3,0-2.4-.8-3.3,0-1.1,.3-2.1,.8-3.1,.3-.6,.9-.9,1.2-1.4,.4-.4,.8-.6,1.3-.6,.8,0,1.6,.2,1.7,1.1,.1,.9,0,1.8-1,2.2-.7,.3-1.1,1-1.8,1.2-.2,0-.3,.2,0,.4,0,0,.2,.1,.3,0,1.3-.4,1.4-.3,1.6,1Z"/>
  <path class="cls-128" d="M158.4,12.4c-.2-.6-.6-1-1.2-1.2-.3,.3,.5,.8,0,.8-.5,0-1.2-.3-1.3-1,0-.5,0-.4,.6-.4,.6,0,1-.7,1.4-1.1,.3-.3,.9,0,1.1-.8,.3-1.4,.2-1.9-1.3-2.4,.3,0,.6-.1,1-.2,.3,0,.4,.2,.6,.4l.2,.3c.1,1,.5,2.1-.2,3.1-.3,.8-.5,1.7-.8,2.5Z"/>
  <path class="cls-127" d="M152.2,8.9c0-1.6,1.7-3.8,2.9-4.1,.2,0,.5,0,.7,.2,.1,.2,0,.4,0,.6-1.3,.9-2.3,2.1-3.5,3.4Z"/>
  <path class="cls-157" d="M159.2,9.8c.2-1,.4-2,.2-3.1,.6,.6,0,1.6,.8,2,0,.2,0,.3,0,.5-.4,0-.6,.6-1,.5Z"/>
  <path class="cls-84" d="M156.4,6.9c-.1,.7-.6,1.1-1.2,1.4,0-.1,0-.3,0-.4,.3-.4,.7-.7,1.2-.9Z"/>
  <path class="cls-1" d="M151.2,10.3c-.2,0-.4-.1-.4-.4,0-.2,.1-.4,.4-.4,.2,0,.4,.1,.4,.4,0,.2-.2,.4-.4,.4Z"/>
  <path class="cls-165" d="M161.5,5.7c0,0,0,.2,0,.3-.3,0-.5,.1-1,.2,.3-.5,.4-1,1-.7,0,0,0,.2,0,.2Z"/>
  <path class="cls-161" d="M159.2,6.5c-.2-.1-.4-.2-.6-.4-.2,0-.3-.1-.8-.3,.9,0,1.2,0,1.3,.7Z"/>
  <path class="cls-89" d="M160.7,8.1c0,0,0,.2,0,.2-.3,0-.6,0-.7-.4,0,0,0-.1,0-.2l.6,.3Z"/>
  <path class="cls-160" d="M123,7.9c.2,1.3,.7,2.5,.9,3.8,0,.4,0,.8,0,1.2-.4,.9-1.2,1.6-1.8,2.3-.2,0-.3-.2-.5-.3-.9-.6-1.5-1.5-1.8-2.5-.3-1-.6-1.9-.9-2.9-.1-.4-.2-.9-.2-1.4,0-1.8,.7-2.3,2.4-1.6,.3,.1,.6,.3,.9,.4,.4,.3,.7,.7,1.1,1Z"/>
  <path class="cls-150" d="M123.5,5.8c0-.5,.4-.4,.7-.2,.9,.7,1.7,1.5,2,2.7,0,.2,0,.5-.1,.7-.1,.2-.3,.1-.4,0-.2-.1-2.2-2.9-2.2-3.3Z"/>
  <path class="cls-50" d="M122.3,4.2c.3,0,.5,.2,.4,.5,0,.3-.2,.5-.5,.4-.3,0-.4-.2-.4-.5,0-.3,.2-.4,.5-.4Z"/>
  <path class="cls-154" d="M164.6,47.3c.7,0,2,1.2,2,1.8,0,.2,0,.3-.3,.4-.4,0-2.2-1.2-2.2-1.6,0-.4,.2-.5,.5-.6Z"/>
  <path class="cls-114" d="M153.1,47.6c-.5,0-1-.2-1.5-.3-.7-.3-.4-.5,0-.8,0,0,.1,0,.2,0,.4-.3,.7-.5,1.1-.8,.6-.2,.8,0,1,.5,0,0,0,.2,0,.2-.9-.2-.5,.7-.8,1Z"/>
  <path class="cls-26" d="M120.2,43.3c0,.6-.6,.7-1,1-.4,.3-.8,.5-1.3,.4,0,0,0,0-.1,0-.2-.3-.2-.6,0-.8,.5-.6,.9-1.3,1.8-1.2,.3,0,.6,.3,.6,.7Z"/>
  <path class="cls-131" d="M117.9,17.7c1,.2,1.4,1,1,2.3-1.1,.2-.8-.7-1-1.3,0-.2,.2-.5,0-.7,0,0,0-.2,0-.3Z"/>
  <path class="cls-18" d="M117.9,18c.2,.1,.2,.3,.3,.5-.2,.2-.3,.4-.4,.6-.2,.2-.2,.5-.2,.7,0,.2,0,.3-.2,.4,0,0-.2,0-.3,0,0-.4-.8-.1-.6-.7,.2-.8,.5-1.4,1.4-1.5Z"/>
  <path class="cls-38" d="M148.7,48.3c-.1-.4-.1-1.1-.9-.7,0,0-.1,0-.2-.2,.1-1.1,1-.5,1.6-.7,.1,.2,.4,0,.5,.2,0,.2,0,.3,0,.5,.2,.1,.4,.2,.3,.5-.4,0-.9,0-1.3,.2Z"/>
  <path class="cls-7" d="M118.7,48.6c.9-.2,1.7-.3,2.6-.5-.6,.9-1.7,.8-2.6,1.1-.6,.2,0-.4,0-.6Z"/>
  <path class="cls-7" d="M116.1,48.3c.6,0,1.2,.2,1.8,.3-.7,.6-1.3,.4-1.8-.3Z"/>
  <path class="cls-26" d="M160.6,44.3c0,.4-.1,.4-.4,.5-.6,0-2.1-1-2.1-1.4,0-.4,.3-.7,.7-.7,.7,0,1.8,1,1.8,1.7Z"/>
  <path class="cls-172" d="M153.8,46.3c-.3-.2-.7-.4-1-.5,0,0,0-.2,0-.2,.1-.3,.4-.5,.8-.5,.3,.2,.5,.3,.8,.5,0,.4,0,.7-.5,.8Z"/>
  <path class="cls-77" d="M175.2,22.9c0,.5-.3,.7-.7,.8-1.4-1.3-1.9-3.3-1-4.9,.5,1.5,.6,3.1,1.7,4.2Z"/>
  <path class="cls-14" d="M177.6,22.8c-.3-.5-.6-1-1.3-1-1.1-.6,0-.7,.3-1,.3,.3,.4,.9,1,.8,0,0,.2,0,.3,0,.2,0,.4,0,.6,.1-.2,.1-.4,.3-.5,.4,0,.3,0,.6-.3,.8Z"/>
  <path class="cls-110" d="M173.4,17c.2,0,.4,.2,.4,.4,0,.2-.2,.3-.4,.3-.2,0-.4-.1-.4-.4,0-.2,.2-.4,.4-.3Z"/>
  <path class="cls-129" d="M177.6,21.6c-.4,.4-.7,.2-1-.8,.3,.3,.7,.5,1,.8Z"/>
  <path class="cls-88" d="M156.1,37.4c0,.4-.4,.7-.5,1-.7,.7-1.6,1.1-2.6,1.3-.7,.3-1.4,0-2.1,.1-.8-.1-1.6-.4-2.2-.9-.5-.8-.2-1.4,.5-1.9,.8-.7,1.9-.9,2.9-1.4,.5,0,1.1,0,1.5-.2,1,.2,2,0,2.7,1,.1,.4,.1,.7-.2,1Z"/>
  <path class="cls-139" d="M156.1,36.3c-.7-.7-1.7-.6-2.5-1,1,0,2,0,2.8,.7,0,.1-.1,.2-.3,.3Z"/>
  <path class="cls-5" d="M156.1,36.3c0,0,.2-.2,.3-.3,.5,.4,.2,1,.3,1.5-.2,0-.3-.2-.5-.3,0-.3,0-.7,0-1Z"/>
  <path class="cls-128" d="M154.4,11.4c.2,.2,.5,.3,.7,.5,1.1,.9,1.1,1.5,0,2.9-.2,0-.3-.2-.5-.3-.5-.6-1-1.2-.5-2,.3-.3,.2-.7,.3-1Z"/>
  <path class="cls-123" d="M154.1,12.4c.2,.7,.3,1.4,.5,2-1.1-.4-1.5-1-1-2,0,0,.3,0,.4,0Z"/>
  <path class="cls-40" d="M158.5,17c0,.6-.3,1.1-.8,1.5-.3-.8,.5-1,.8-1.5Z"/>
  <path class="cls-124" d="M119.7,12.4c.6,.8,1.2,1.7,1.8,2.5-.4,.9-1.3,1.3-1.8,2.1-.5-1-.3-2-.1-3,0-.5,.1-1.1,.2-1.6Z"/>
  <path class="cls-121" d="M117.6,19c0-.3,.2-.5,.5-.5,0,.6,0,1.3,.8,1.5,0,0,0,.2,0,.3-.5,0-1,.6-1.5,0,0-.2,0-.3,0-.5,.1-.2,0-.5,.3-.8Z"/>
  <path class="cls-48" d="M122.5,38.6c-.5-.7-.6-1.5-.5-2.3,.2-.5,.6-.6,1-.8,.9-.7,1.7,.2,2.5,0,1.3,.3,2.7,.7,3.7,1.8,.7,.8,.7,1.4-.1,2.1-.5,0-1,.3-1.5,.3-1.8,.2-3.5,0-5.1-1Z"/>
  <path class="cls-8" d="M119.9,27.7c0,.7,0,1.4,0,2-.4-.7-.4-1.4,0-2Z"/>
  <path class="cls-45" d="M123,35.6c-.3,.3-.7,.5-1,.8,0,0-.2-.2-.3-.3,.3-.4,.8-.5,1.3-.5Z"/>
  <path class="cls-33" d="M122,15.2c.1-1.1,1.1-1.6,1.8-2.3-.1,1.6-.7,2.4-1.8,2.3Z"/>
  <path class="cls-154" d="M114,47.8c0,.4-1.8,1.7-2.2,1.6,0,0-.2,0-.2-.1,0-.7,.4-1.1,.9-1.5,.4-.3,.8-.8,1.3-.3,0,0,.1,.2,.1,.3Z"/>
  <path class="cls-63" d="M149.8,47.1c-.2,0-.4,0-.5-.2,.8-.1,1.5-.4,2.3-.3,0,.3-.4,.5,0,.8,0,.3,.6,.7,0,1,0,0-.2,0-.3,0,0-.9-.5-1.5-1.5-1.3Z"/>
  <path class="cls-96" d="M146,55.3h2s0,0,0,.1h-2s0,0,0-.1Z"/>
  <path class="cls-13" d="M121.2,61.5c.1-.5,.2-1,.3-1.5,.5,0,.6,.5,.4,.8-.5,.5-.4,1.2-.4,1.8-.5-.2,0-.8-.3-1.1Z"/>
  <path class="cls-166" d="M156.2,58.9c.3,.9,.2,1.3-.1,1.7-.1,.1-.3,0-.4-.2-.4-.6,.3-.8,.5-1.5Z"/>
  <path class="cls-138" d="M176.4,23.2c-.2,0-.3,0-.4,0,0,0,0-.2-.1-.3,0,0,.2,0,.2,0,0,0,.2,.2,.3,.3Z"/>
  <path class="cls-136" d="M144.7,37.4c-1.5,1-2.2,2.5-2.8,4.1-.2,.6-.5,1.2-.9,1.6-.8,0-.5-.6-.5-1.1,.1-.3,.3-.5,.5-.7,.4-.5,.5-1-.2-1.4-.2,0-.3-.2-.4-.3-1.5-1.1-2.8-.5-3,1.4,0,.4,0,.7,.4,.9,.3,.2,.5,.4,.5,.7,0,.5-.1,.8-.7,.6-.5-.2-.9-.6-1-1.2-.6-2.1-1.8-3.7-3.3-5.2-.2-.5-.6-.9,.2-1.2,.1,.5,.2,.9,.6,1.2,.6,.7,1.3,1.2,2.2,1,.5-.2,1-.5,1.3-1,.9-1.4,.7-1.8-1-2.1-.4,0-.8,0-1.1-.2-.5-.4-.3-.8-.2-1.3,.4-.3,.9-.4,1.4-.2,1.7,1.4,2.5,1.4,4.5,.3,.5-.3,1.1-.5,1.6,0,.4,.5,.3,.9-.2,1.3-.6,.2-1.2,.2-1.7,.4-.9,.4-1.1,.7-.6,1.6,.4,.7,1.1,1,1.8,1.3,1.3,0,2.1-.7,2.6-1.8,.1,0,.3-.2,.4-.2-.1,.5-.3,1-.4,1.5Z"/>
  <path class="cls-103" d="M142.1,37.9c-1.4,0-2.7-1.2-2.5-2.4,.2-1,1.3-.8,2-1,.3,0,.6,0,1,.1-1.6,.8-1.8,1.9-.5,3.3Z"/>
  <path class="cls-59" d="M135.5,34.6c.5,0,.9-.2,1.4-.1,1.9,.3,2.2,1.1,.9,2.7-.4,.2-.6,.9-1.3,.5,.8-1.6,.7-2.2-1-3.1Z"/>
  <path class="cls-145" d="M136.5,37.6c.4-.2,.9-.3,1.3-.5-.3,.7-.8,.8-1.5,.8,0,0,.2-.2,.2-.3Z"/>
  <path class="cls-20" d="M133.4,35.6c-.4,.4-.2,.8-.2,1.2,0,0-.1,0-.2,0-.3-.6-.2-1.2,0-1.8,0,0,.1,0,.2,0,.2,.2,.3,.4,.2,.6Z"/>
  <path class="cls-156" d="M133,35.1c0,.6,0,1.2,0,1.8-.5-.3-.2-.8-.3-1.3,0-.2,0-.4,.3-.5Z"/>
  <path class="cls-170" d="M150,48.1c0-.2-.2-.3-.3-.5,.6-.3,.7,.3,1,.5-.3,0-.5,0-.8,0Z"/>
  <path class="cls-155" d="M140.6,42c.3,.3-.2,.8,.4,1-1.1,.9-2.2,1-3.4,.2,.5,0,.5-.4,.5-.8,.9-.1,1.7-.5,2.6-.5Z"/>
  <path class="cls-133" d="M148.7,38.9c.7,.3,1.4,.5,2,.8,0,0,0,.1,0,.2,0,0,0,0,0,0-.8,0-1.6-.2-2-1Z"/>
  <path class="cls-86" d="M150.8,39.9c0,0,0-.2,0-.3,.8,0,1.5,0,2.3,0-.5,.5-1.2,.1-1.8,.3-.2,0-.3,.2-.5,0Z"/>
  <path class="cls-82" d="M127.6,39.7c.5-.3,1-.5,1.5-.3-.5,.2-1,.3-1.5,.5,0,0,0-.2,0-.3Z"/>
  <path class="cls-17" d="M129.3,26c0,.4,0,.8-.2,1.1-.4,.8-1,1.1-1.9,.9-.8-.2-1.3-.8-1.2-1.7,0-.9,.6-1.4,1.4-1.5,.3,0,.7,0,1,.1,.7,0,.7,.6,.8,1.1Z"/>
  <path class="cls-98" d="M129.1,30.2c-.5-.1-.8-.4-.8-.9,0-.6,.4-.9,.9-.8,.5,0,.7,.4,.7,.9,0,.5-.4,.7-.8,.8Z"/>
  <path class="cls-31" d="M129.3,26c-.3-.4-.6-.7-.8-1.1,1.3-.4,1,.4,.8,1.1Z"/>
  <path class="cls-104" d="M149.5,27.9c-.7-.6-1.1-1.4-.6-2.3,.5-.9,1.4-.9,2.3-.7,.6,.6,1.1,1.3,.6,2.2-.5,1-1.4,1-2.3,.7Z"/>
  <path class="cls-35" d="M149.8,29.7c-.5,.5-1,.8-1.5,.1-.5-.7,0-1.1,.5-1.4,.2,0,.5,.2,.7,.2,.4,.3,.5,.6,.3,1h0Z"/>
  <path class="cls-111" d="M156.1,28.1c-.1,.6-.7,.6-1.1,.7-.3,0-.6-.2-.5-.6,0-.4,.3-.9,.7-.9,.3,0,.8,.3,.8,.8Z"/>
  <path class="cls-111" d="M156.4,27.5c.4,.8,.4,1.5,0,2.3,0-.8,0-1.5,0-2.3Z"/>
  <path class="cls-23" d="M149.8,29.7c0-.4,0-.7-.3-1,.2,0,.4-.2,.5,0,.2,.4,0,.7-.3,1Z"/>
  <path class="cls-111" d="M155.2,26.9c0,0-.1-.1-.2-.2,0,0,.2-.1,.3-.1,0,0,.2,0,.2,.2,0,.2,0,.2-.3,.2Z"/>
  <path class="cls-23" d="M150.1,30.9c0-.2,0-.4,0-.4,0-.1,.1-.2,.2-.3,.2,0,.2,0,.2,.2,0,.2-.2,.3-.3,.5Z"/>
  <path class="cls-68" d="M117.6,19c.1,.3,.4,.7-.3,.8-.4-.4-.3-.7,.3-.8Z"/>
  <path class="cls-105" d="M140.6,42c-.8,.6-1.6,.8-2.6,.5-.2-.2-.4-.3-.5-.5-.3-.1-.3-.5-.5-.8-.5-1.4,.8-1.8,1.5-2.4,.7-.6,1.4,0,1.9,.6,.1,.1,.3,.2,.4,.3,.9,.5,.8,1.1,.3,1.8-.2,.2-.3,.4-.5,.6Z"/>
  <path class="cls-153" d="M141.1,41.4c.1-.6,.3-1.3-.3-1.8,1,.3,1.1,1,.3,1.8Z"/>
  <path class="cls-155" d="M137,41.2c.2,.2,.4,.4,.5,.8-.9,.2-.3-.5-.5-.8Z"/>
</svg>